<svg width="54" height="53" viewBox="0 0 54 53" fill="none" xmlns="http://www.w3.org/2000/svg">
<path d="M20.5534 3.42857V11.5089C15.4474 12.678 13.0011 15.8726 12.6806 21.822H20.5534V40.9671H3.42857V25.224C3.42857 13.8463 8.32114 5.12571 20.5534 3.42857ZM20.5534 0C20.3966 0 20.2397 0.0111425 20.082 0.0325711C7.13229 1.82914 0 10.776 0 25.224V40.9663C0 42.8597 1.53514 44.3949 3.42857 44.3949H20.5534C22.4469 44.3949 23.982 42.8597 23.982 40.9663V21.822C23.982 19.9286 22.4469 18.3934 20.5534 18.3934H16.7726C17.6194 16.1897 19.2 15.336 21.3189 14.8509C22.8771 14.4934 23.982 13.1074 23.982 11.5089V3.42857C23.982 2.43771 23.5526 1.494 22.8051 0.842571C22.1777 0.295714 21.3754 0 20.5534 0Z" fill="#FFD600"/>
<path d="M50.0349 12.0001V20.0804C44.9306 21.2495 42.4843 24.4441 42.1637 30.3935H50.0349V49.5387H32.91V33.7955C32.91 22.4178 37.8034 13.6972 50.0349 12.0001ZM50.0349 8.57153C49.878 8.57153 49.7212 8.58268 49.5634 8.6041C36.6137 10.4015 29.4814 19.3475 29.4814 33.7964V49.5387C29.4814 51.4321 31.0166 52.9673 32.91 52.9673H50.0349C51.9283 52.9673 53.4634 51.4321 53.4634 49.5387V30.3935C53.4634 28.5001 51.9283 26.965 50.0349 26.965H46.2557C47.1026 24.7612 48.6823 23.9075 50.8012 23.4224C52.3586 23.065 53.4634 21.679 53.4634 20.0804V12.0001C53.4634 11.0092 53.034 10.0655 52.2866 9.41411C51.6583 8.86725 50.8569 8.57153 50.0349 8.57153Z" fill="#FFD600"/>
<path d="M17.8029 35.5388C17.3289 35.5388 16.9458 35.1556 16.9458 34.6816V25.2685H12.9566C12.4826 25.2685 12.0995 24.8853 12.0995 24.4113C12.0995 23.9373 12.4826 23.5542 12.9566 23.5542H18.0995C18.5735 23.5542 18.6601 23.9228 18.6601 24.3959V34.6816C18.6601 35.1556 18.2769 35.5388 17.8029 35.5388Z" fill="#FFD600"/>
<path d="M47.8028 45.8246C47.3288 45.8246 46.9457 45.4414 46.9457 44.9674V43.2531C46.9457 42.7791 47.3288 42.396 47.8028 42.396C48.2768 42.396 48.66 42.7791 48.66 43.2531V44.9674C48.66 45.4414 48.2768 45.8246 47.8028 45.8246Z" fill="#FFD600"/>
<path d="M47.8029 40.6817C47.3289 40.6817 46.9458 40.2986 46.9458 39.8246V33.84H42.9566C42.4826 33.84 42.0995 33.4569 42.0995 32.9829C42.0995 32.5089 42.4826 32.1257 42.9566 32.1257H48.0995C48.5735 32.1257 48.6601 32.4943 48.6601 32.9674V39.8246C48.6601 40.2986 48.2769 40.6817 47.8029 40.6817Z" fill="#FFD600"/>
</svg>
