<svg width="64" height="64" viewBox="0 0 64 64" fill="none" xmlns="http://www.w3.org/2000/svg">
<path d="M5.81819 0C2.62008 0 0 2.62008 0 5.81819V14.5455H2.90909H61.0909V43.6364C61.0909 45.2732 59.8187 46.5455 58.1819 46.5455H36.3409C36.3544 46.2967 36.3636 46.0475 36.3636 45.7983C36.3636 40.4957 33.3248 35.7403 28.6988 33.4432C29.8512 32.0585 30.5455 30.2812 30.5455 28.3495C30.5455 23.9555 26.95 20.3636 22.554 20.3636C18.158 20.3636 14.5596 23.9555 14.5596 28.3495C14.5596 30.2812 15.2561 32.0585 16.4091 33.4432C11.7833 35.7407 8.74148 40.4957 8.74148 45.7983C8.74148 46.0476 8.75036 46.2967 8.7642 46.5455H5.81819C4.18139 46.5455 2.90909 45.2732 2.90909 43.6364V17.4545H0V43.6364C0 46.8345 2.62008 49.4545 5.81819 49.4545H58.1819C61.3799 49.4545 64 46.8345 64 43.6364V5.81819C64 2.62008 61.3799 0 58.1819 0H5.81819ZM5.81819 2.90909H58.1819C59.8187 2.90909 61.0909 4.18139 61.0909 5.81819V11.6364H2.90909V5.81819C2.90909 4.18139 4.18139 2.90909 5.81819 2.90909ZM22.554 23.2727C25.3793 23.2727 27.6364 25.5292 27.6364 28.3495C27.6364 31.1696 25.3793 33.4261 22.554 33.4261C19.7287 33.4261 17.4688 31.1696 17.4688 28.3495C17.4688 25.5292 19.7287 23.2727 22.554 23.2727ZM19.0113 35.5028C20.0808 36.0353 21.2837 36.3352 22.554 36.3352C23.8243 36.3352 25.0275 36.0353 26.0965 35.5028C30.4833 37.006 33.4545 41.1213 33.4545 45.7983C33.4545 46.0477 33.4435 46.2967 33.4261 46.5455H11.679C11.6616 46.2967 11.6506 46.0479 11.6506 45.7983C11.6506 41.1204 14.6243 37.0053 19.0113 35.5028Z" fill="#971900"/>
<path d="M14.5455 52.3635C11.8518 52.3635 9.57255 54.2282 8.92045 56.7271H0V59.6363H8.92045C9.57255 62.1353 11.8518 63.9999 14.5455 63.9999C17.24 63.9999 19.5248 62.1363 20.1761 59.6363H64V56.7271H20.1761C19.5248 54.2271 17.24 52.3635 14.5455 52.3635ZM14.5455 55.2726C16.1693 55.2726 17.4545 56.5578 17.4545 58.1817C17.4545 59.8055 16.1693 61.0909 14.5455 61.0909C12.9216 61.0909 11.6364 59.8055 11.6364 58.1817C11.6364 56.5578 12.9216 55.2726 14.5455 55.2726Z" fill="#971900"/>
<path d="M42.8892 20.5455C42.6676 20.4223 42.4177 20.3591 42.1641 20.3622C41.9106 20.3652 41.6624 20.4344 41.4438 20.5631C41.2254 20.6918 41.0444 20.8752 40.9186 21.0954C40.7929 21.3155 40.7269 21.5647 40.7272 21.8183V36.3636C40.7269 36.6172 40.7929 36.8664 40.9186 37.0866C41.0444 37.3067 41.2254 37.4902 41.4438 37.6188C41.6624 37.7475 41.9106 37.8167 42.1641 37.8198C42.4177 37.823 42.6676 37.7596 42.8892 37.6364L55.98 30.3636C56.2073 30.2379 56.3968 30.0535 56.5288 29.8296C56.6606 29.6059 56.7302 29.3508 56.7302 29.091C56.7302 28.8311 56.6606 28.576 56.5288 28.3523C56.3968 28.1284 56.2073 27.944 55.98 27.8183L42.8892 20.5455ZM43.6362 24.2927L52.2754 29.091L43.6362 33.8922V24.2927Z" fill="#971900"/>
<path d="M55.2728 5.81812V8.7272H58.1819V5.81812H55.2728Z" fill="#971900"/>
<path d="M49.4543 5.81812V8.7272H52.3634V5.81812H49.4543Z" fill="#971900"/>
<path d="M43.6364 5.81812V8.7272H46.5454V5.81812H43.6364Z" fill="#971900"/>
<path d="M37.818 5.81812V8.7272H40.7271V5.81812H37.818Z" fill="#971900"/>
</svg>
