<svg width="46" height="64" viewBox="0 0 46 64" fill="none" xmlns="http://www.w3.org/2000/svg">
<path d="M42.2721 42.2721V35.6096L39.4606 36.7035L39.4523 36.685L39.3853 36.5633C38.3079 34.8858 36.5654 33.7187 34.6033 33.363L27.8377 32.132V31.5978C30.3679 30.1286 32.2206 27.6223 32.798 24.6591C34.6724 24.2714 36.086 22.6084 36.086 20.6206V10.4371C36.086 7.55949 34.2013 5.04997 31.467 4.2334L30.9515 3.71789C28.5532 1.31971 25.3653 0 21.9742 0C14.9746 0 9.27921 5.69436 9.27921 12.695V20.6206C9.27921 22.6084 10.6928 24.2714 12.5672 24.6591C13.1456 27.6223 14.9973 30.1297 17.5274 31.5978V32.132L10.7628 33.362C8.80293 33.7176 7.06155 34.8828 5.98309 36.5592L5.92119 36.7097L3.09309 35.6096V42.2721C1.38776 42.2721 0 43.6599 0 45.3652V49.4893C0 51.1946 1.38776 52.5824 3.09309 52.5824V56.3807L22.6826 64L42.2721 56.3807V52.5824C43.9774 52.5824 45.3652 51.1946 45.3652 49.4893V45.3652C45.3652 43.6599 43.9774 42.2721 42.2721 42.2721ZM29.7699 34.5797L34.2342 35.3911C35.5488 35.6302 36.7129 36.3891 37.4891 37.4696L27.514 41.3483L29.7699 34.5797ZM19.6771 32.5433C20.6289 32.8341 21.6371 32.9929 22.6826 32.9929C23.7281 32.9929 24.7364 32.8341 25.688 32.5433L22.6826 34.7971L19.6771 32.5433ZM21.1134 36.1973L19.0091 38.3006L17.644 34.2064L18.3008 34.0878L21.1134 36.1973ZM27.0645 34.0888L27.7212 34.2074L26.3562 38.3017L24.2518 36.1984L27.0645 34.0888ZM32.9928 22.3959V18.8451C33.6063 19.2029 34.0239 19.8607 34.0239 20.6206C34.0239 21.3804 33.6063 22.0382 32.9928 22.3959ZM12.3724 22.3959C11.7589 22.0382 11.3413 21.3804 11.3413 20.6206C11.3413 19.8607 11.7589 19.2029 12.3724 18.8451V22.3959ZM12.3724 15.4654V16.6428C12.0053 16.7387 11.6609 16.8831 11.3413 17.0697V12.695C11.3413 6.83262 16.1108 2.06206 21.9742 2.06206C24.8138 2.06206 27.4851 3.16835 29.4935 5.17679L30.4029 6.08719L30.6802 6.15523C32.6496 6.64703 34.0239 8.40803 34.0239 10.4371V17.0697C33.7043 16.8831 33.36 16.7377 32.9928 16.6428V15.4654H29.7235C26.9294 15.4654 24.259 14.1313 22.5836 11.897L21.764 10.8021L19.7153 12.8518C18.0286 14.5375 15.7871 15.4654 13.4034 15.4654H12.3724ZM14.4344 22.6826V17.48C16.98 17.2439 19.3421 16.1398 21.1732 14.3096L21.5742 13.9086C23.6415 16.1903 26.619 17.5275 29.7235 17.5275H30.9309V22.6826C30.9309 27.2305 27.2305 30.9308 22.6826 30.9308C18.1347 30.9308 14.4344 27.2305 14.4344 22.6826ZM11.131 35.3911L15.5953 34.5797L17.8513 41.3483L7.874 37.4686C8.65026 36.387 9.81646 35.6302 11.131 35.3911ZM2.06206 49.4893V45.3652C2.06206 44.796 2.525 44.3342 3.09309 44.3342C4.79839 44.3342 6.18615 45.722 6.18615 47.4273C6.18615 49.1326 4.79839 50.5203 3.09309 50.5203C2.525 50.5203 2.06206 50.0585 2.06206 49.4893ZM21.6516 61.3853L5.15516 54.9713V52.1452C6.97288 51.3472 8.24823 49.5358 8.24823 47.4273C8.24823 45.3189 6.97288 43.5073 5.15516 42.7093V38.6243L21.6516 45.0394V61.3853ZM18.5905 41.637L22.6826 37.5438L26.7747 41.636L22.6826 43.2279L18.5905 41.637ZM40.2101 54.9703L23.7137 61.3843V45.0394L40.2101 38.6243V42.7093C38.3923 43.5073 37.117 45.3189 37.117 47.4273C37.117 49.5358 38.3923 51.3472 40.2101 52.1452V54.9703ZM43.3031 49.4893C43.3031 50.0585 42.8402 50.5203 42.2721 50.5203C40.5668 50.5203 39.1791 49.1326 39.1791 47.4273C39.1791 45.722 40.5668 44.3342 42.2721 44.3342C42.8402 44.3342 43.3031 44.796 43.3031 45.3652V49.4893Z" fill="#971900"/>
</svg>
