<svg width="64" height="64" viewBox="0 0 64 64" fill="none" xmlns="http://www.w3.org/2000/svg">
<path d="M8.93093 41.5213C8.50078 41.5213 8.08825 41.3504 7.7841 41.0463C7.47995 40.742 7.30908 40.3295 7.30908 39.8995V28.3303C7.30908 27.9001 7.47995 27.4876 7.7841 27.1835C8.08825 26.8793 8.50078 26.7085 8.93093 26.7085C9.36106 26.7085 9.77358 26.8793 10.0777 27.1835C10.3819 27.4876 10.5528 27.9001 10.5528 28.3303V39.8995C10.5528 40.3295 10.3819 40.742 10.0777 41.0463C9.77358 41.3504 9.36106 41.5213 8.93093 41.5213Z" fill="#971900"/>
<path d="M16.239 15.6886C14.6875 15.6886 13.1709 15.2285 11.8809 14.3666C10.5909 13.5047 9.58548 12.2796 8.99177 10.8462C8.39805 9.41283 8.24271 7.8356 8.54539 6.31396C8.84806 4.79232 9.59515 3.39459 10.6922 2.29754C11.7892 1.2005 13.187 0.453404 14.7085 0.15073C16.2302 -0.151944 17.8075 0.00339869 19.2409 0.597116C20.6742 1.19083 21.8994 2.19626 22.7613 3.48625C23.6232 4.77624 24.0833 6.29286 24.0833 7.84431C24.0809 9.92405 23.2538 11.9179 21.7832 13.3885C20.3126 14.8591 18.3187 15.6863 16.239 15.6886ZM16.239 3.24369C15.3291 3.24369 14.4396 3.5135 13.683 4.01903C12.9264 4.52455 12.3367 5.24308 11.9885 6.08373C11.6403 6.92438 11.5492 7.84941 11.7267 8.74184C11.9043 9.63428 12.3424 10.454 12.9858 11.0974C13.6292 11.7408 14.4489 12.179 15.3414 12.3565C16.2338 12.5341 17.1589 12.4429 17.9995 12.0947C18.8402 11.7465 19.5588 11.1568 20.0642 10.4003C20.5697 9.6437 20.8396 8.75423 20.8396 7.84431C20.8382 6.62458 20.3529 5.45524 19.4905 4.59275C18.628 3.73028 17.4587 3.24512 16.239 3.24369Z" fill="#971900"/>
<path d="M41.8131 27.8224C41.4999 27.8227 41.1934 27.7321 40.9304 27.562C40.6676 27.3917 40.4596 27.149 40.3316 26.8631C40.2038 26.5774 40.1613 26.2606 40.2095 25.9511C40.2576 25.6417 40.3944 25.3529 40.6032 25.1194L49.4152 15.2413C49.5571 15.0824 49.7291 14.9529 49.9211 14.8604C50.1131 14.7678 50.3215 14.7141 50.5342 14.702C50.7471 14.6901 50.9601 14.7201 51.1613 14.7905C51.3624 14.8608 51.5479 14.9701 51.7068 15.112C51.8658 15.2541 51.9952 15.4259 52.0877 15.6181C52.1803 15.8101 52.2341 16.0183 52.2461 16.2312C52.258 16.4439 52.228 16.6571 52.1577 16.8583C52.0873 17.0594 51.978 17.2448 51.836 17.4038L43.0241 27.2765C42.8721 27.4478 42.6857 27.5849 42.477 27.6791C42.2683 27.7732 42.042 27.822 41.8131 27.8224Z" fill="#971900"/>
<path d="M59.1343 42.4673H30.0353C29.6052 42.4673 29.1926 42.2963 28.8885 41.9921C28.5844 41.688 28.4135 41.2755 28.4135 40.8454C28.4135 40.4152 28.5844 40.0027 28.8885 39.6986C29.1926 39.3944 29.6052 39.2236 30.0353 39.2236H59.1343C59.5645 39.2236 59.9771 39.0526 60.2812 38.7485C60.5853 38.4443 60.7562 38.0318 60.7562 37.6017V4.90214C60.7562 4.47201 60.5853 4.05948 60.2812 3.75533C59.9771 3.45118 59.5645 3.2803 59.1343 3.2803H27.3181C26.8881 3.2803 26.4756 3.10943 26.1714 2.80528C25.8673 2.50113 25.6963 2.0886 25.6963 1.65847C25.6963 1.22832 25.8673 0.815801 26.1714 0.511647C26.4756 0.207493 26.8881 0.0366211 27.3181 0.0366211H59.1343C60.4248 0.0366211 61.6623 0.549237 62.5748 1.4617C63.4873 2.37417 63.9999 3.61172 63.9999 4.90214V37.6017C63.9999 38.8922 63.4873 40.1297 62.5748 41.0422C61.6623 41.9546 60.4248 42.4673 59.1343 42.4673Z" fill="#971900"/>
<path d="M16.239 64.001H8.93093C8.50078 64.001 8.08825 63.8301 7.7841 63.526C7.47995 63.2219 7.30908 62.8093 7.30908 62.3792V39.8994C7.30908 39.4692 7.47995 39.0567 7.7841 38.7526C8.08825 38.4484 8.50078 38.2776 8.93093 38.2776C9.36106 38.2776 9.77358 38.4484 10.0777 38.7526C10.3819 39.0567 10.5528 39.4692 10.5528 39.8994V60.7573H16.239C16.6691 60.7573 17.0816 60.9282 17.3857 61.2323C17.6899 61.5366 17.8607 61.9491 17.8607 62.3792C17.8607 62.8093 17.6899 63.2219 17.3857 63.526C17.0816 63.8301 16.6691 64.001 16.239 64.001Z" fill="#971900"/>
<path d="M23.5481 64.0013H16.2389C15.8088 64.0013 15.3963 63.8304 15.0922 63.5263C14.788 63.2221 14.617 62.8096 14.617 62.3794V40.8458C14.617 40.4156 14.788 40.0031 15.0922 39.6989C15.3963 39.3948 15.8088 39.2239 16.2389 39.2239C16.6691 39.2239 17.0816 39.3948 17.3857 39.6989C17.6899 40.0031 17.8607 40.4156 17.8607 40.8458V60.7576H21.9263V30.0941C21.9261 29.421 22.1256 28.7629 22.4996 28.2031C22.8736 27.6436 23.4051 27.2073 24.027 26.9497C24.6489 26.6922 25.3331 26.625 25.9933 26.7565C26.6535 26.8878 27.2598 27.2121 27.7357 27.6882L30.2776 30.2269C30.4659 30.4162 30.6898 30.5661 30.9365 30.6683C31.1832 30.7704 31.4477 30.8226 31.7145 30.8217H39.2626C39.5331 30.8217 39.8009 30.7677 40.0504 30.663C40.2998 30.5582 40.5258 30.4047 40.7151 30.2115C40.9044 30.0182 41.0532 29.7891 41.1528 29.5377C41.2525 29.2861 41.3009 29.0173 41.2953 28.7469C41.2726 27.6494 40.3288 26.7573 39.1912 26.7573H33.2239C32.794 26.757 32.3818 26.5859 32.0779 26.2816L28.5866 22.7914C27.9533 22.1543 27.1997 21.6493 26.3697 21.3056C25.5396 20.9618 24.6497 20.7862 23.7514 20.789H22.4928L20.0416 22.8271C18.9738 23.7147 17.6291 24.2005 16.2406 24.2005C14.852 24.2005 13.5074 23.7147 12.4395 22.8271L9.98621 20.789H8.93094C7.42311 20.7907 5.97753 21.3905 4.91133 22.4566C3.84515 23.5228 3.2454 24.9684 3.24369 26.4763C3.24369 26.9063 3.07281 27.3188 2.76865 27.6231C2.4645 27.9273 2.05198 28.0981 1.62184 28.0981C1.1917 28.0981 0.779181 27.9273 0.475026 27.6231C0.170872 27.3188 0 26.9063 0 26.4763C0.00257576 24.1084 0.944338 21.8382 2.61866 20.1639C4.29297 18.4896 6.5631 17.5478 8.93094 17.5453H10.5722C10.9511 17.5455 11.3179 17.6782 11.6091 17.9204L14.5112 20.3327C14.9969 20.7373 15.609 20.9588 16.2411 20.9588C16.8732 20.9588 17.4854 20.7373 17.9711 20.3327L20.871 17.9195C21.1622 17.6771 21.529 17.5444 21.9079 17.5442H23.7535C25.078 17.5406 26.39 17.7997 27.6135 18.3065C28.8371 18.8134 29.9481 19.5579 30.8819 20.497L33.8986 23.5136H39.1967C42.0878 23.5136 44.486 25.8318 44.5433 28.6819C44.5575 29.3837 44.4316 30.0813 44.1729 30.7338C43.9142 31.3863 43.5279 31.9805 43.0367 32.482C42.5454 32.9833 41.959 33.3816 41.3119 33.6534C40.6648 33.9253 39.9699 34.0654 39.268 34.0654H31.7102C31.0172 34.0674 30.3306 33.9318 29.6903 33.6665C29.05 33.4013 28.4687 33.0118 27.98 32.5202L25.4424 29.9794C25.4216 29.9588 25.3956 29.9442 25.3674 29.9373C25.339 29.9302 25.3092 29.931 25.2813 29.9394C25.2497 29.9501 25.2221 29.9704 25.2028 29.9977C25.1833 30.0248 25.173 30.0573 25.1731 30.0907V62.3762C25.1736 62.5898 25.1318 62.8013 25.0503 62.9986C24.9688 63.196 24.8491 63.3753 24.6982 63.5263C24.5471 63.6772 24.3679 63.7969 24.1704 63.8784C23.9731 63.9599 23.7615 64.0017 23.5481 64.0013Z" fill="#971900"/>
<path d="M5.27638 45.1761C3.87744 45.1745 2.53621 44.6181 1.54701 43.6291C0.557795 42.6398 0.00143115 41.2985 0 39.8997V26.4751C0 26.0449 0.170872 25.6324 0.475026 25.3283C0.779181 25.0241 1.1917 24.8533 1.62184 24.8533C2.05198 24.8533 2.4645 25.0241 2.76865 25.3283C3.07281 25.6324 3.24369 26.0449 3.24369 26.4751V39.8997C3.24369 40.4387 3.45784 40.9557 3.83905 41.3369C4.22026 41.7181 4.73728 41.9324 5.27638 41.9324C5.8155 41.9324 6.33252 41.7181 6.71373 41.3369C7.09494 40.9557 7.30909 40.4387 7.30909 39.8997C7.30909 39.4695 7.47997 39.057 7.78413 38.7528C8.08828 38.4487 8.5008 38.2778 8.93094 38.2778C9.36107 38.2778 9.77359 38.4487 10.0777 38.7528C10.3819 39.057 10.5528 39.4695 10.5528 39.8997C10.5513 41.2985 9.99498 42.6398 9.00577 43.6291C8.01657 44.6181 6.67534 45.1745 5.27638 45.1761Z" fill="#971900"/>
<path d="M51.0374 64.001H1.62526C1.19512 64.001 0.782598 63.8302 0.478443 63.526C0.174289 63.2219 0.00341797 62.8094 0.00341797 62.3792C0.00341797 61.9491 0.174289 61.5366 0.478443 61.2325C0.782598 60.9283 1.19512 60.7573 1.62526 60.7573H51.0374C51.4674 60.7573 51.88 60.9283 52.1842 61.2325C52.4884 61.5366 52.6592 61.9491 52.6592 62.3792C52.6592 62.8094 52.4884 63.2219 52.1842 63.526C51.88 63.8302 51.4674 64.001 51.0374 64.001Z" fill="#971900"/>
<path d="M42.2143 17.9431H33.8057C33.3755 17.9431 32.963 17.7723 32.6588 17.4682C32.3547 17.1639 32.1838 16.7514 32.1838 16.3213C32.1838 15.8911 32.3547 15.4786 32.6588 15.1745C32.963 14.8703 33.3755 14.6995 33.8057 14.6995H42.2143C42.6445 14.6995 43.057 14.8703 43.3612 15.1745C43.6653 15.4786 43.8362 15.8911 43.8362 16.3213C43.8362 16.7514 43.6653 17.1639 43.3612 17.4682C43.057 17.7723 42.6445 17.9431 42.2143 17.9431Z" fill="#971900"/>
<path d="M50.6231 10.6111H33.8057C33.3755 10.6111 32.963 10.4402 32.6588 10.1361C32.3547 9.83193 32.1838 9.41941 32.1838 8.98928C32.1838 8.55914 32.3547 8.14662 32.6588 7.84245C32.963 7.5383 33.3755 7.36743 33.8057 7.36743H50.6231C51.0533 7.36743 51.4658 7.5383 51.7699 7.84245C52.0741 8.14662 52.2449 8.55914 52.2449 8.98928C52.2449 9.41941 52.0741 9.83193 51.7699 10.1361C51.4658 10.4402 51.0533 10.6111 50.6231 10.6111Z" fill="#971900"/>
</svg>
