<svg width="65" height="64" viewBox="0 0 65 64" fill="none" xmlns="http://www.w3.org/2000/svg">
<g clip-path="url(#clip0_40_80)">
<mask id="mask0_40_80" style="mask-type:luminance" maskUnits="userSpaceOnUse" x="0" y="0" width="65" height="64">
<path d="M64.8919 0H0.891907V64H64.8919V0Z" fill="white"/>
</mask>
<g mask="url(#mask0_40_80)">
<path d="M35.1919 28.1624L33.9919 25.4749L37.2294 22.2374L39.9169 23.4374C40.6294 23.7499 41.4669 23.4374 41.7919 22.7249C42.1044 22.0124 41.7919 21.1749 41.0794 20.8499L29.1794 15.5499C28.6419 15.3124 28.0169 15.4249 27.6044 15.8374C27.1919 16.2499 27.0669 16.8749 27.3169 17.4124L32.6169 29.3124C32.9294 30.0249 33.7794 30.3624 34.4919 30.0249C35.1669 29.7124 35.4919 28.8749 35.1919 28.1624ZM32.7544 22.6999L31.3919 19.6499L34.4544 21.0124L32.7544 22.6999Z" fill="#971900"/>
<path d="M57.8794 30.2375H47.5044L51.8169 25.925C54.4544 23.2875 54.4544 19 51.8169 16.3625L37.6669 2.225C36.3919 0.95 34.6919 0.25 32.8919 0.25C31.0919 0.25 29.3919 0.95 28.1169 2.225L13.9794 16.3625C11.3419 19 11.3419 23.2875 13.9794 25.925L18.2919 30.2375H7.91691C4.17941 30.2375 1.14191 33.275 1.14191 37V56.9875C1.14191 60.7125 4.17941 63.75 7.90441 63.75H27.8919C29.8669 63.75 31.6544 62.8875 32.8919 61.525C34.1294 62.8875 35.9044 63.75 37.8919 63.75H57.8794C61.6044 63.75 64.6419 60.7125 64.6419 56.9875V37C64.6419 33.275 61.6044 30.2375 57.8794 30.2375ZM31.1294 56.9875C31.1294 58.775 29.6794 60.225 27.8919 60.225H7.90441C6.11691 60.225 4.66691 58.775 4.66691 56.9875V37C4.66691 35.2125 6.11691 33.7625 7.90441 33.7625H21.8169L28.1169 40.0625C28.9669 40.9125 30.0044 41.5125 31.1294 41.8125V56.9875ZM32.8919 38.5125C32.0294 38.5125 31.2169 38.175 30.6044 37.5625L16.4669 23.4375C15.2044 22.175 15.2044 20.125 16.4669 18.8625L30.6044 4.725C31.2169 4.1125 32.0294 3.775 32.8919 3.775C33.7544 3.775 34.5669 4.1125 35.1794 4.725L49.3169 18.8625C50.5794 20.125 50.5794 22.175 49.3169 23.4375L35.1794 37.575C34.5669 38.175 33.7544 38.5125 32.8919 38.5125ZM61.1169 56.9875C61.1169 58.775 59.6669 60.225 57.8794 60.225H37.8919C36.1044 60.225 34.6544 58.775 34.6544 56.9875V41.8125C35.7794 41.5125 36.8169 40.9125 37.6669 40.0625L43.9669 33.7625H57.8794C59.6669 33.7625 61.1169 35.2125 61.1169 37V56.9875Z" fill="#971900"/>
<path d="M17.9794 39.5H14.7919C14.0044 39.5 13.3794 40.1375 13.3794 40.9125V46.9875V47V47.0125V53.0875C13.3794 53.875 14.0169 54.5 14.7919 54.5H17.9794C20.4294 54.5 22.4294 52.5 22.4294 50.05C22.4294 48.875 21.9669 47.8 21.2044 47.0125C21.9544 46.2125 22.4294 45.15 22.4294 43.975C22.4294 41.5 20.4294 39.5 17.9794 39.5ZM17.9794 51.65H16.2044V48.4125H17.9794C18.8669 48.4125 19.5919 49.1375 19.5919 50.025C19.5919 50.925 18.8669 51.65 17.9794 51.65ZM17.9794 45.5625H16.2044V42.325H17.9794C18.8669 42.325 19.5919 43.05 19.5919 43.9375C19.5919 44.8375 18.8669 45.5625 17.9794 45.5625Z" fill="#971900"/>
<path d="M48.4794 39.5C44.3419 39.5 40.9794 42.8625 40.9794 47C40.9794 51.1375 44.3419 54.5 48.4794 54.5C50.5669 54.5 52.5794 53.6125 53.9919 52.075C54.5169 51.5 54.4794 50.6 53.9044 50.075C53.3294 49.55 52.4294 49.5875 51.9044 50.1625C51.0294 51.125 49.7794 51.6625 48.4794 51.6625C45.9044 51.6625 43.8169 49.575 43.8169 47C43.8169 44.425 45.9044 42.3375 48.4794 42.3375C49.9794 42.3375 51.3419 43.025 52.2294 44.225C52.6919 44.85 53.5794 44.9875 54.2169 44.525C54.8419 44.0625 54.9794 43.175 54.5169 42.5375C53.1044 40.6375 50.8419 39.5 48.4794 39.5Z" fill="#971900"/>
</g>
</g>
<defs>
<clipPath id="clip0_40_80">
<rect width="64" height="64" fill="white" transform="translate(0.891907)"/>
</clipPath>
</defs>
</svg>
