<svg width="66" height="65" viewBox="0 0 66 65" fill="none" xmlns="http://www.w3.org/2000/svg">
<mask id="mask0_40_63" style="mask-type:luminance" maskUnits="userSpaceOnUse" x="0" y="0" width="66" height="65">
<path d="M65.8919 0H0.891907V65H65.8919V0Z" fill="white"/>
</mask>
<g mask="url(#mask0_40_63)">
<path d="M14.4759 24.1211C14.4759 34.6216 23.0184 43.1641 33.5189 43.1641C44.0193 43.1641 52.5619 34.6216 52.5619 24.1211C52.5619 13.6207 44.0193 5.07812 33.5189 5.07812C23.0184 5.07812 14.4759 13.6207 14.4759 24.1211ZM33.5189 7.61719C42.6193 7.61719 50.0228 15.0207 50.0228 24.1211C50.0228 33.2216 42.6193 40.6251 33.5189 40.6251C24.4184 40.6251 17.0149 33.2216 17.0149 24.1211C17.0149 15.0207 24.4184 7.61719 33.5189 7.61719Z" fill="#E8063C"/>
<path d="M21.7618 21.8578L26.6827 26.7063L25.5506 33.5206C25.4717 33.9952 25.6676 34.4733 26.0569 34.756C26.4457 35.0386 26.9609 35.0768 27.3879 34.8556L33.5189 31.6719L39.6493 34.8556C40.0728 35.0753 40.5881 35.0411 40.9804 34.756C41.3696 34.4733 41.5655 33.9952 41.4867 33.5206L40.3545 26.7063L45.2754 21.8578C45.6181 21.5206 45.7406 21.0187 45.5918 20.561C45.4431 20.1038 45.0488 19.77 44.5732 19.6981L37.744 18.6701L34.654 12.4905C34.4393 12.0606 33.9994 11.7888 33.5189 11.7888C33.0378 11.7888 32.5985 12.0606 32.3832 12.4905L29.2932 18.6701L22.464 19.6981C21.9884 19.7695 21.5942 20.1038 21.4454 20.561C21.2966 21.0187 21.4196 21.5206 21.7618 21.8578ZM30.3232 21.0827C30.7318 21.0212 31.0849 20.7648 31.2699 20.3954L33.5189 15.8969L35.7678 20.3954C35.9528 20.7648 36.3059 21.0212 36.7145 21.0827L41.685 21.831L38.1031 25.3594C37.809 25.6495 37.6741 26.0646 37.7416 26.4723L38.5658 31.4319L34.1035 29.115C33.9206 29.0198 33.7197 28.9721 33.5189 28.9721C33.318 28.9721 33.1172 29.0198 32.9337 29.115L28.4715 31.4319L29.2957 26.4723C29.3636 26.0646 29.2287 25.6495 28.9342 25.3594L25.3527 21.831L30.3232 21.0827Z" fill="#E8063C"/>
<path d="M34.7884 1.26953C34.7884 1.97075 34.2201 2.53907 33.5189 2.53907C32.8176 2.53907 32.2493 1.97075 32.2493 1.26953C32.2493 0.568314 32.8176 0 33.5189 0C34.2201 0 34.7884 0.568314 34.7884 1.26953Z" fill="#E8063C"/>
<path d="M27.5357 0.748307C16.8562 3.47433 9.39774 13.0856 9.39774 24.1211C9.39774 30.9751 12.2795 37.4334 17.3383 42.0071L9.68983 55.4865C9.44386 55.9204 9.47461 56.458 9.76818 56.8607C10.0618 57.2639 10.5636 57.4578 11.0521 57.3561L19.738 55.5525L22.7908 64.155C22.9564 64.6232 23.3804 64.951 23.8754 64.9951C24.3703 65.0393 24.8449 64.7898 25.0903 64.3579L33.5189 49.54L41.9469 64.3579C42.174 64.7571 42.5965 64.9996 43.0498 64.9996C43.087 64.9996 43.1247 64.9981 43.1619 64.9951C43.6568 64.951 44.0808 64.6227 44.2469 64.155L47.2992 55.5525L55.9851 57.3561C56.4731 57.4573 56.9755 57.2634 57.269 56.8607C57.5631 56.458 57.5934 55.9204 57.3474 55.4865L49.699 42.0071C54.7578 37.4334 57.6395 30.9751 57.6395 24.1211C57.6395 13.0856 50.181 3.47433 39.502 0.748307C38.8221 0.574738 38.1313 0.984857 37.9578 1.66426C37.7842 2.34365 38.1943 3.03495 38.8737 3.20852C48.4279 5.64742 55.1009 14.247 55.1009 24.1211C55.1009 36.1385 45.3409 45.7032 33.5189 45.7032C21.6884 45.7032 11.9368 36.1306 11.9368 24.1211C11.9368 14.247 18.6093 5.64742 28.1635 3.20852C28.8429 3.03495 29.253 2.34365 29.08 1.66426C28.9064 0.984857 28.2156 0.574738 27.5357 0.748307ZM24.2557 60.6906L21.7608 53.6601C21.5486 53.062 20.9277 52.7124 20.3063 52.8413L13.2827 54.2998L19.3358 43.6318C22.8652 46.1976 27.0442 47.7607 31.3899 48.1475L24.2557 60.6906ZM46.7309 52.8413C46.1101 52.7124 45.4887 53.062 45.2764 53.6601L42.782 60.6906L35.6473 48.1475C39.9935 47.7607 44.172 46.1976 47.7019 43.6318L53.755 54.2998L46.7309 52.8413Z" fill="#E8063C"/>
</g>
</svg>
