<svg width="64" height="63" viewBox="0 0 64 63" fill="none" xmlns="http://www.w3.org/2000/svg">
<path d="M25.0429 43.044H20.8436V38.8446C20.8436 38.2648 20.3734 37.7947 19.7937 37.7947H15.5944C15.0145 37.7947 14.5444 38.2648 14.5444 38.8446V43.044H10.3451C9.76529 43.044 9.29523 43.514 9.29523 44.0938V48.2932C9.29523 48.8729 9.76529 49.343 10.3451 49.343H14.5444V53.5424C14.5444 54.1222 15.0145 54.5922 15.5944 54.5922H19.7937C20.3734 54.5922 20.8436 54.1222 20.8436 53.5424V49.343H25.0429C25.6228 49.343 26.0928 48.8729 26.0928 48.2932V44.0938C26.0928 43.514 25.6228 43.044 25.0429 43.044ZM23.9931 47.2434H19.7937C19.2139 47.2434 18.7438 47.7134 18.7438 48.2932V52.4926H16.6442V48.2932C16.6442 47.7134 16.1741 47.2434 15.5944 47.2434H11.3949V45.1436H15.5944C16.1741 45.1436 16.6442 44.6735 16.6442 44.0938V39.8944H18.7438V44.0938C18.7438 44.6735 19.2139 45.1436 19.7937 45.1436H23.9931V47.2434Z" fill="#FFBA00"/>
<path d="M63.7822 44.2752C62.977 37.0408 56.1823 30.2724 48.9416 29.5007C48.3266 29.4328 47.7084 29.3979 47.0896 29.3957H35.5414V25.1963H33.4416V23.0967C33.4416 20.7774 31.5615 18.8973 29.2422 18.8973H23.993C22.8333 18.8973 21.8933 17.9573 21.8933 16.7975C21.8933 15.6379 22.8333 14.6979 23.993 14.6979H40.7906C43.1098 14.6979 44.9899 12.8177 44.9899 10.4985C44.9899 8.17923 43.1098 6.29908 40.7906 6.29908H35.5414C34.3816 6.29908 33.4416 5.35908 33.4416 4.19939V0H31.3419V4.19939C31.3419 6.51864 33.2221 8.39878 35.5414 8.39878H40.7906C41.9502 8.39878 42.8902 9.33878 42.8902 10.4985C42.8902 11.6581 41.9502 12.5982 40.7906 12.5982H23.993C21.6737 12.5982 19.7936 14.4783 19.7936 16.7975C19.7936 19.1168 21.6737 20.9969 23.993 20.9969H29.2422C30.4018 20.9969 31.3419 21.9369 31.3419 23.0967V25.1963H29.2422V29.3957H17.6939C17.0745 29.3972 16.4555 29.4322 15.8398 29.5007C8.59592 30.2776 1.8055 37.046 1.00237 44.2804C-0.0523353 53.4973 6.56433 61.8242 15.7813 62.8789C19.5346 63.3084 23.3229 62.4602 26.5346 60.4713C27.9175 59.5661 29.498 59.0076 31.1424 58.843C31.9548 58.7788 32.7707 58.776 33.5834 58.8346C35.2537 58.9962 36.8598 59.5611 38.2636 60.4808C46.1551 65.3579 56.5062 62.9142 61.3833 55.0225C63.3678 51.8114 64.2129 48.0254 63.7822 44.2752ZM31.3419 27.2961H33.4416V29.3957H31.3419V27.2961ZM58.0447 55.9926C53.2983 61.3016 45.4271 62.441 39.3701 58.6959C37.6787 57.5945 35.7437 56.9231 33.7335 56.7401C33.2904 56.708 32.8432 56.6918 32.3918 56.6918C31.9141 56.6918 31.4469 56.7118 30.9766 56.7485C28.997 56.9381 27.0925 57.6029 25.425 58.6865C18.522 62.9573 9.46375 60.8238 5.1927 53.9209C3.45402 51.1106 2.7131 47.7965 3.08947 44.5135C3.78026 38.2963 9.84208 32.2576 16.0655 31.5889C16.6063 31.5284 17.1498 31.4973 17.6939 31.4954H47.0896C47.6336 31.4958 48.1771 31.5248 48.7179 31.5826C54.9404 32.2513 61.0012 38.29 61.6941 44.5072C62.1891 48.6826 60.859 52.8686 58.0447 55.9926Z" fill="#FFBA00"/>
<path d="M47.0895 35.6948C44.7703 35.6948 42.8901 37.5749 42.8901 39.8942C42.8901 42.2135 44.7703 44.0936 47.0895 44.0936C49.4088 44.0936 51.2889 42.2135 51.2889 39.8942C51.2889 37.5749 49.4088 35.6948 47.0895 35.6948ZM47.0895 41.994C45.9299 41.994 44.9899 41.054 44.9899 39.8942C44.9899 38.7346 45.9299 37.7946 47.0895 37.7946C48.2492 37.7946 49.1892 38.7346 49.1892 39.8942C49.1892 41.054 48.2491 41.994 47.0895 41.994Z" fill="#FFBA00"/>
<path d="M47.0895 48.2927C44.7703 48.2927 42.8901 50.1728 42.8901 52.4921C42.8901 54.8113 44.7703 56.6915 47.0895 56.6915C49.4088 56.6915 51.2889 54.8113 51.2889 52.4921C51.2889 50.1728 49.4088 48.2927 47.0895 48.2927ZM47.0895 54.5917C45.9299 54.5917 44.9899 53.6517 44.9899 52.4921C44.9899 51.3324 45.9299 50.3924 47.0895 50.3924C48.2492 50.3924 49.1892 51.3324 49.1892 52.4921C49.1892 53.6517 48.2491 54.5917 47.0895 54.5917Z" fill="#FFBA00"/>
<path d="M39.7408 41.9941C37.4215 41.9941 35.5414 43.8744 35.5414 46.1935C35.5414 48.5128 37.4215 50.3929 39.7408 50.3929C42.0599 50.3929 43.9402 48.5128 43.9402 46.1935C43.9402 43.8744 42.0599 41.9941 39.7408 41.9941ZM39.7408 48.2933C38.581 48.2933 37.641 47.3533 37.641 46.1935C37.641 45.0339 38.581 44.0939 39.7408 44.0939C40.9004 44.0939 41.8404 45.0339 41.8404 46.1935C41.8404 47.3533 40.9003 48.2933 39.7408 48.2933Z" fill="#FFBA00"/>
<path d="M54.4385 41.9941C52.1192 41.9941 50.2391 43.8744 50.2391 46.1935C50.2391 48.5128 52.1192 50.3929 54.4385 50.3929C56.7577 50.3929 58.6378 48.5128 58.6378 46.1935C58.6378 43.8744 56.7577 41.9941 54.4385 41.9941ZM54.4385 48.2933C53.2788 48.2933 52.3388 47.3533 52.3388 46.1935C52.3388 45.0339 53.2788 44.0939 54.4385 44.0939C55.5982 44.0939 56.5382 45.0339 56.5382 46.1935C56.5382 47.3533 55.598 48.2933 54.4385 48.2933Z" fill="#FFBA00"/>
</svg>
