<svg width="53" height="53" viewBox="0 0 53 53" fill="none" xmlns="http://www.w3.org/2000/svg">
<path d="M6.81355 37.7498C6.66999 37.7498 6.54011 37.7327 6.41535 37.719L2.85554 37.2815C2.34625 37.2148 1.85749 37.3755 1.48322 37.7079C1.10725 38.0403 0.891907 38.5171 0.891907 39.0187V46.381C0.891907 49.7554 3.63654 52.5 7.01007 52.5H14.3724C14.8731 52.5 15.3516 52.2847 15.6832 51.9095C16.0147 51.5344 16.1702 51.0345 16.1087 50.5364L15.6729 46.9911C15.5618 46.0161 15.8694 45.0403 16.5171 44.3157C17.1631 43.5919 18.0535 43.1937 19.0259 43.1937C20.8921 43.1937 22.4097 44.7113 22.4097 46.5775C22.4097 46.7262 22.3909 46.8595 22.3789 46.9766L21.9432 50.5372C21.8816 51.0345 22.0371 51.5344 22.3687 51.9095C22.702 52.2855 23.1788 52.5 23.6795 52.5H31.0401C34.4153 52.5 37.16 49.7554 37.16 46.381V45.0205C38.0856 44.6294 38.9294 44.0485 39.6124 43.2835C40.9231 41.8154 41.5452 39.8458 41.3196 37.866L41.1248 36.2689H46.5081C49.8816 36.2689 52.6263 33.5235 52.6263 30.1491V22.7876C52.6263 22.286 52.4109 21.8092 52.0367 21.4768C51.6607 21.1453 51.1702 20.9889 50.6626 21.0505L47.1182 21.4854C46.1458 21.599 45.1666 21.2906 44.4419 20.6429C43.719 19.9977 43.3208 19.1065 43.3208 18.1341C43.3208 16.2679 44.8384 14.7503 46.7046 14.7503C46.8482 14.7503 46.9781 14.7674 47.1028 14.7811L50.6626 15.2186C51.1685 15.2758 51.6607 15.1229 52.0349 14.7922C52.4109 14.4598 52.6263 13.983 52.6263 13.4814V6.11902C52.6263 2.74463 49.8817 0 46.5081 0H39.1458C38.6451 0 38.1666 0.21534 37.835 0.59045C37.5035 0.96556 37.348 1.46545 37.4095 1.96362L37.8453 5.50891C37.9564 6.48389 37.6488 7.45887 37.0011 8.18433C36.3551 8.9081 35.4647 9.3063 34.4923 9.3063C32.6261 9.3063 31.1085 7.78869 31.1085 5.92249C31.1085 5.77381 31.1273 5.64051 31.1393 5.52344L31.575 1.96276C31.6366 1.46545 31.4811 0.96558 31.1495 0.59045C30.8162 0.21448 30.3394 0 29.8387 0H22.4781C19.1029 0 16.3582 2.74463 16.3582 6.11902V10.4453L14.6544 10.2471C14.4049 10.2223 14.169 10.2018 13.9144 10.2018C10.416 10.2018 7.55225 12.8434 7.13537 16.2311H7.01007C3.63654 16.2311 0.891907 18.9766 0.891907 22.3509V29.7124C0.891907 30.214 1.10725 30.6908 1.48151 31.0232C1.85748 31.3547 2.34797 31.5111 2.85554 31.4496L6.39997 31.0146C7.36896 30.9027 8.34821 31.2103 9.0762 31.8572C9.7992 32.5023 10.1973 33.3935 10.1973 34.3659C10.1973 36.2322 8.67976 37.7498 6.81355 37.7498ZM13.9144 13.7018C14.0494 13.7018 14.1742 13.7172 14.3433 13.7334L17.9049 14.1487C18.4107 14.2059 18.8978 14.0487 19.2721 13.718C19.6446 13.3856 19.8582 12.9097 19.8582 12.4106V6.11902C19.8582 4.67493 21.034 3.5 22.4781 3.5H27.8614L27.6631 5.11413C27.6341 5.3739 27.6085 5.63367 27.6085 5.92249C27.6085 9.7182 30.6966 12.8063 34.4922 12.8063C36.4456 12.8063 38.3118 11.9714 39.6124 10.5145C40.9231 9.0465 41.5452 7.0769 41.3196 5.09705L41.1248 3.5H46.5081C47.9522 3.5 49.1263 4.67493 49.1263 6.11902V11.5032L47.4856 11.3024C47.2361 11.275 46.9832 11.2502 46.7046 11.2502C42.909 11.2502 39.8209 14.3384 39.8209 18.134C39.8209 20.0882 40.6565 21.9544 42.1126 23.2541C43.5789 24.5641 45.5357 25.1793 47.5301 24.9614L49.1263 24.7657V30.149C49.1263 31.594 47.9522 32.7689 46.5081 32.7689H39.1458C38.6451 32.7689 38.1666 32.9842 37.835 33.3593C37.5035 33.7345 37.348 34.2343 37.4095 34.7325L37.8453 38.2778C37.9564 39.2528 37.6488 40.2278 37.001 40.9532C36.355 41.677 35.4647 42.0752 34.4923 42.0752C32.626 42.0752 31.1085 40.5576 31.1085 38.6914C31.1085 38.5427 31.1273 38.4094 31.1392 38.2923L31.575 34.7317C31.6366 34.2343 31.481 33.7345 31.1495 33.3593C30.8162 32.9834 30.3394 32.7689 29.8387 32.7689H22.4781C21.034 32.7689 19.8583 31.594 19.8583 30.149V21.7169C19.8583 21.2153 19.6429 20.7385 19.2687 20.4061C18.9457 20.1216 18.5338 19.9669 18.1083 19.9669C18.0382 19.9669 17.9664 19.9712 17.8946 19.9797L14.3348 20.4164C13.3607 20.5351 12.4224 20.2429 11.6876 19.5935C10.9544 18.9441 10.5511 18.046 10.5511 17.0642C10.5511 15.21 12.0601 13.7018 13.9144 13.7018ZM11.4056 29.2458C9.9376 27.9351 7.97906 27.3173 5.9881 27.5386L4.39191 27.7342V22.3509C4.39191 20.906 5.56599 19.7311 7.01007 19.7311H7.60554C8.00085 20.6694 8.58895 21.5241 9.3668 22.2134C10.8399 23.5182 12.8001 24.1283 14.7603 23.8908L16.3582 23.6942V30.1491C16.3582 33.5235 19.1029 36.2689 22.4781 36.2689H27.8614L27.6631 37.8831C27.6341 38.1428 27.6085 38.4026 27.6085 38.6914C27.6085 42.2021 30.26 45.0746 33.66 45.491V46.381C33.66 47.8251 32.4842 49 31.0401 49H25.6568L25.8551 47.3859C25.8841 47.1261 25.9097 46.8663 25.9097 46.5775C25.9097 42.7819 22.8216 39.6937 19.026 39.6937C17.0709 39.6937 15.2047 40.5286 13.9058 41.9846C12.5951 43.4535 11.973 45.4223 12.1986 47.403L12.3934 49H7.01007C5.56597 49 4.39191 47.8251 4.39191 46.381V40.9968L6.03254 41.1976C6.28205 41.225 6.53498 41.2498 6.81355 41.2498C10.6092 41.2498 13.6973 38.1616 13.6973 34.366C13.6973 32.4118 12.8616 30.5455 11.4056 29.2458Z" fill="#E8063C"/>
</svg>
