<svg width="64" height="54" viewBox="0 0 64 54" fill="none" xmlns="http://www.w3.org/2000/svg">
<mask id="path-1-outside-1_50_164" maskUnits="userSpaceOnUse" x="-0.108093" y="0" width="64" height="54" fill="black">
<rect fill="white" x="-0.108093" width="64" height="54"/>
<path d="M62.5894 33.4442C61.8501 30.0503 59.8334 27.1473 56.9108 25.2703L49.1653 20.2955L49.5512 19.9096C50.3817 19.079 50.8392 17.9747 50.8392 16.7999C50.8392 15.6254 50.3819 14.521 49.5512 13.6904C48.9084 13.0476 48.1016 12.6283 47.2253 12.4716L49.5716 10.1253C51.2861 8.41074 51.2861 5.62093 49.5716 3.90627C47.8569 2.1916 45.0673 2.1916 43.3526 3.90627L42.6426 4.61616C42.4898 3.7628 42.0842 2.94613 41.426 2.28805C40.5955 1.4575 39.4911 1 38.3165 1C37.142 1 36.0376 1.45738 35.2069 2.28805L25.2695 12.2282C25.7052 10.6519 25.2748 8.93684 24.0856 7.74764C23.1409 6.80284 21.834 6.31544 20.5018 6.41014C19.1737 6.50454 17.9535 7.16764 17.1518 8.23014L11.0624 15.8965L12.5432 17.0726L18.6403 9.39654L18.6563 9.37574C19.1288 8.74554 19.8504 8.35224 20.636 8.29634C21.4222 8.23964 22.1916 8.52784 22.7485 9.08484C23.5759 9.91224 23.7804 11.1712 23.2576 12.218L17.754 23.2364L17.9656 23.6592C17.9855 23.6991 19.95 27.6987 19.0824 32.4225L20.9423 32.7642C21.7569 28.3298 20.3958 24.5253 19.8578 23.2566L22.7928 17.3804L36.5441 3.62526C37.0175 3.15187 37.647 2.89116 38.3165 2.89116C38.9861 2.89116 39.6154 3.15187 40.0889 3.62526C41.0662 4.60255 41.0662 6.19274 40.0889 7.17004L28.6206 18.6384L28.0891 18.297C27.3238 17.8056 26.413 17.6415 25.5242 17.835C24.6355 18.0285 23.8753 18.5566 23.3838 19.3218C22.3692 20.9016 22.829 23.0124 24.4086 24.0271L24.6097 24.1562C24.1717 24.4172 23.7861 24.7807 23.4923 25.238C23.0008 26.0032 22.8366 26.9141 23.0303 27.8029C23.2239 28.6915 23.7519 29.4516 24.5204 29.9453L32.3076 34.9021C31.3473 35.0678 30.4739 35.6239 29.9227 36.4821C29.3656 37.3495 29.2127 38.4142 29.5029 39.4034C29.7919 40.388 30.4908 41.1982 31.4219 41.6285L33.5956 42.6968L30.0625 46.2298C23.8326 52.4597 13.6955 52.4598 7.4653 46.2298C1.72034 40.4848 1.19866 31.3549 6.25201 24.9929L11.3675 18.5527L9.88671 17.3766L4.7712 23.8168C-0.880085 30.9317 -0.296765 41.1421 6.12821 47.567C9.61189 51.0506 14.1879 52.7925 18.764 52.7925C23.34 52.7925 27.9161 51.0508 31.3998 47.567L35.3887 43.578L44.1476 47.8826C45.9634 48.775 47.9255 49.2186 49.8844 49.2186C52.1346 49.2186 54.3805 48.6331 56.3943 47.47L55.4486 45.8325C52.2288 47.6922 48.316 47.8242 44.9817 46.1856L32.2452 39.9262L32.2214 39.9148C31.7828 39.7143 31.4533 39.3338 31.3174 38.871C31.1817 38.4082 31.2533 37.91 31.5139 37.5041C31.901 36.9014 32.6277 36.615 33.3223 36.7911L41.5013 38.8687L41.9585 38.9828L42.3258 38.6898C42.3626 38.6606 46.0511 35.7722 50.5314 36.9024L50.9939 35.0689C46.4558 33.9242 42.729 36.1054 41.5361 36.9264L37.3318 35.8583L25.5393 28.3519C25.1991 28.1334 24.9642 27.7953 24.8781 27.4002C24.792 27.0051 24.865 26.6 25.0836 26.2598C25.5346 25.5573 26.4731 25.3528 27.1757 25.804L39.6219 33.798L40.6438 32.2068L28.1976 24.2129L25.4305 22.4357C24.7281 21.9845 24.5237 21.0461 24.9748 20.3435C25.1933 20.0032 25.5314 19.7684 25.9265 19.6824C26.3217 19.5963 26.7266 19.6693 27.0669 19.8878L31.218 22.554C31.2197 22.5551 31.2231 22.5573 31.2231 22.5573L42.28 29.6589L43.3019 28.0677L32.2452 20.9665C31.5427 20.5153 31.3384 19.5769 31.7894 18.8744C32.2405 18.172 33.1791 17.9675 33.8816 18.4187L36.1173 19.8546L45.0301 25.5791L46.052 23.988L37.2574 18.3395C36.8587 17.8366 36.8188 17.129 37.1703 16.5818C37.3888 16.2416 37.7269 16.0067 38.122 15.9207C38.5171 15.8345 38.9222 15.9076 39.2624 16.1261L42.6943 18.3303L44.7627 19.7152L55.8888 26.8615C58.3865 28.4656 60.1098 30.9464 60.7416 33.8469C61.3733 36.7473 60.8379 39.72 59.2337 42.2177C58.591 43.2185 57.8 44.1027 56.883 44.8463L58.0738 46.3151C59.1476 45.4446 60.073 44.4099 60.8247 43.2396C62.7021 40.3169 63.3286 36.8381 62.5894 33.4442ZM35.5793 15.5598C35.3054 15.9862 35.1371 16.4562 35.0713 16.9353L34.9035 16.8276C34.4956 16.5656 34.0524 16.4027 33.6018 16.3312L44.6896 5.24348C45.163 4.77009 45.7924 4.50938 46.462 4.50938C47.1315 4.50938 47.7609 4.77009 48.2344 5.24348C49.2117 6.22074 49.2117 7.81104 48.2344 8.78834L43.3321 13.6906L41.626 15.3967L40.2845 14.535C38.7046 13.5201 36.5939 13.98 35.5793 15.5598ZM43.739 16.7538L43.2543 16.4424L44.6692 15.0275C45.6464 14.0502 47.2367 14.0502 48.214 15.0275C48.6874 15.5009 48.9481 16.1304 48.9481 16.7999C48.9481 17.4695 48.6874 18.099 48.214 18.5723L47.5369 19.2495L45.8074 18.1387L43.739 16.7538Z"/>
</mask>
<path d="M62.5894 33.4442C61.8501 30.0503 59.8334 27.1473 56.9108 25.2703L49.1653 20.2955L49.5512 19.9096C50.3817 19.079 50.8392 17.9747 50.8392 16.7999C50.8392 15.6254 50.3819 14.521 49.5512 13.6904C48.9084 13.0476 48.1016 12.6283 47.2253 12.4716L49.5716 10.1253C51.2861 8.41074 51.2861 5.62093 49.5716 3.90627C47.8569 2.1916 45.0673 2.1916 43.3526 3.90627L42.6426 4.61616C42.4898 3.7628 42.0842 2.94613 41.426 2.28805C40.5955 1.4575 39.4911 1 38.3165 1C37.142 1 36.0376 1.45738 35.2069 2.28805L25.2695 12.2282C25.7052 10.6519 25.2748 8.93684 24.0856 7.74764C23.1409 6.80284 21.834 6.31544 20.5018 6.41014C19.1737 6.50454 17.9535 7.16764 17.1518 8.23014L11.0624 15.8965L12.5432 17.0726L18.6403 9.39654L18.6563 9.37574C19.1288 8.74554 19.8504 8.35224 20.636 8.29634C21.4222 8.23964 22.1916 8.52784 22.7485 9.08484C23.5759 9.91224 23.7804 11.1712 23.2576 12.218L17.754 23.2364L17.9656 23.6592C17.9855 23.6991 19.95 27.6987 19.0824 32.4225L20.9423 32.7642C21.7569 28.3298 20.3958 24.5253 19.8578 23.2566L22.7928 17.3804L36.5441 3.62526C37.0175 3.15187 37.647 2.89116 38.3165 2.89116C38.9861 2.89116 39.6154 3.15187 40.0889 3.62526C41.0662 4.60255 41.0662 6.19274 40.0889 7.17004L28.6206 18.6384L28.0891 18.297C27.3238 17.8056 26.413 17.6415 25.5242 17.835C24.6355 18.0285 23.8753 18.5566 23.3838 19.3218C22.3692 20.9016 22.829 23.0124 24.4086 24.0271L24.6097 24.1562C24.1717 24.4172 23.7861 24.7807 23.4923 25.238C23.0008 26.0032 22.8366 26.9141 23.0303 27.8029C23.2239 28.6915 23.7519 29.4516 24.5204 29.9453L32.3076 34.9021C31.3473 35.0678 30.4739 35.6239 29.9227 36.4821C29.3656 37.3495 29.2127 38.4142 29.5029 39.4034C29.7919 40.388 30.4908 41.1982 31.4219 41.6285L33.5956 42.6968L30.0625 46.2298C23.8326 52.4597 13.6955 52.4598 7.4653 46.2298C1.72034 40.4848 1.19866 31.3549 6.25201 24.9929L11.3675 18.5527L9.88671 17.3766L4.7712 23.8168C-0.880085 30.9317 -0.296765 41.1421 6.12821 47.567C9.61189 51.0506 14.1879 52.7925 18.764 52.7925C23.34 52.7925 27.9161 51.0508 31.3998 47.567L35.3887 43.578L44.1476 47.8826C45.9634 48.775 47.9255 49.2186 49.8844 49.2186C52.1346 49.2186 54.3805 48.6331 56.3943 47.47L55.4486 45.8325C52.2288 47.6922 48.316 47.8242 44.9817 46.1856L32.2452 39.9262L32.2214 39.9148C31.7828 39.7143 31.4533 39.3338 31.3174 38.871C31.1817 38.4082 31.2533 37.91 31.5139 37.5041C31.901 36.9014 32.6277 36.615 33.3223 36.7911L41.5013 38.8687L41.9585 38.9828L42.3258 38.6898C42.3626 38.6606 46.0511 35.7722 50.5314 36.9024L50.9939 35.0689C46.4558 33.9242 42.729 36.1054 41.5361 36.9264L37.3318 35.8583L25.5393 28.3519C25.1991 28.1334 24.9642 27.7953 24.8781 27.4002C24.792 27.0051 24.865 26.6 25.0836 26.2598C25.5346 25.5573 26.4731 25.3528 27.1757 25.804L39.6219 33.798L40.6438 32.2068L28.1976 24.2129L25.4305 22.4357C24.7281 21.9845 24.5237 21.0461 24.9748 20.3435C25.1933 20.0032 25.5314 19.7684 25.9265 19.6824C26.3217 19.5963 26.7266 19.6693 27.0669 19.8878L31.218 22.554C31.2197 22.5551 31.2231 22.5573 31.2231 22.5573L42.28 29.6589L43.3019 28.0677L32.2452 20.9665C31.5427 20.5153 31.3384 19.5769 31.7894 18.8744C32.2405 18.172 33.1791 17.9675 33.8816 18.4187L36.1173 19.8546L45.0301 25.5791L46.052 23.988L37.2574 18.3395C36.8587 17.8366 36.8188 17.129 37.1703 16.5818C37.3888 16.2416 37.7269 16.0067 38.122 15.9207C38.5171 15.8345 38.9222 15.9076 39.2624 16.1261L42.6943 18.3303L44.7627 19.7152L55.8888 26.8615C58.3865 28.4656 60.1098 30.9464 60.7416 33.8469C61.3733 36.7473 60.8379 39.72 59.2337 42.2177C58.591 43.2185 57.8 44.1027 56.883 44.8463L58.0738 46.3151C59.1476 45.4446 60.073 44.4099 60.8247 43.2396C62.7021 40.3169 63.3286 36.8381 62.5894 33.4442ZM35.5793 15.5598C35.3054 15.9862 35.1371 16.4562 35.0713 16.9353L34.9035 16.8276C34.4956 16.5656 34.0524 16.4027 33.6018 16.3312L44.6896 5.24348C45.163 4.77009 45.7924 4.50938 46.462 4.50938C47.1315 4.50938 47.7609 4.77009 48.2344 5.24348C49.2117 6.22074 49.2117 7.81104 48.2344 8.78834L43.3321 13.6906L41.626 15.3967L40.2845 14.535C38.7046 13.5201 36.5939 13.98 35.5793 15.5598ZM43.739 16.7538L43.2543 16.4424L44.6692 15.0275C45.6464 14.0502 47.2367 14.0502 48.214 15.0275C48.6874 15.5009 48.9481 16.1304 48.9481 16.7999C48.9481 17.4695 48.6874 18.099 48.214 18.5723L47.5369 19.2495L45.8074 18.1387L43.739 16.7538Z" fill="#E8063C"/>
<path d="M62.5894 33.4442C61.8501 30.0503 59.8334 27.1473 56.9108 25.2703L49.1653 20.2955L49.5512 19.9096C50.3817 19.079 50.8392 17.9747 50.8392 16.7999C50.8392 15.6254 50.3819 14.521 49.5512 13.6904C48.9084 13.0476 48.1016 12.6283 47.2253 12.4716L49.5716 10.1253C51.2861 8.41074 51.2861 5.62093 49.5716 3.90627C47.8569 2.1916 45.0673 2.1916 43.3526 3.90627L42.6426 4.61616C42.4898 3.7628 42.0842 2.94613 41.426 2.28805C40.5955 1.4575 39.4911 1 38.3165 1C37.142 1 36.0376 1.45738 35.2069 2.28805L25.2695 12.2282C25.7052 10.6519 25.2748 8.93684 24.0856 7.74764C23.1409 6.80284 21.834 6.31544 20.5018 6.41014C19.1737 6.50454 17.9535 7.16764 17.1518 8.23014L11.0624 15.8965L12.5432 17.0726L18.6403 9.39654L18.6563 9.37574C19.1288 8.74554 19.8504 8.35224 20.636 8.29634C21.4222 8.23964 22.1916 8.52784 22.7485 9.08484C23.5759 9.91224 23.7804 11.1712 23.2576 12.218L17.754 23.2364L17.9656 23.6592C17.9855 23.6991 19.95 27.6987 19.0824 32.4225L20.9423 32.7642C21.7569 28.3298 20.3958 24.5253 19.8578 23.2566L22.7928 17.3804L36.5441 3.62526C37.0175 3.15187 37.647 2.89116 38.3165 2.89116C38.9861 2.89116 39.6154 3.15187 40.0889 3.62526C41.0662 4.60255 41.0662 6.19274 40.0889 7.17004L28.6206 18.6384L28.0891 18.297C27.3238 17.8056 26.413 17.6415 25.5242 17.835C24.6355 18.0285 23.8753 18.5566 23.3838 19.3218C22.3692 20.9016 22.829 23.0124 24.4086 24.0271L24.6097 24.1562C24.1717 24.4172 23.7861 24.7807 23.4923 25.238C23.0008 26.0032 22.8366 26.9141 23.0303 27.8029C23.2239 28.6915 23.7519 29.4516 24.5204 29.9453L32.3076 34.9021C31.3473 35.0678 30.4739 35.6239 29.9227 36.4821C29.3656 37.3495 29.2127 38.4142 29.5029 39.4034C29.7919 40.388 30.4908 41.1982 31.4219 41.6285L33.5956 42.6968L30.0625 46.2298C23.8326 52.4597 13.6955 52.4598 7.4653 46.2298C1.72034 40.4848 1.19866 31.3549 6.25201 24.9929L11.3675 18.5527L9.88671 17.3766L4.7712 23.8168C-0.880085 30.9317 -0.296765 41.1421 6.12821 47.567C9.61189 51.0506 14.1879 52.7925 18.764 52.7925C23.34 52.7925 27.9161 51.0508 31.3998 47.567L35.3887 43.578L44.1476 47.8826C45.9634 48.775 47.9255 49.2186 49.8844 49.2186C52.1346 49.2186 54.3805 48.6331 56.3943 47.47L55.4486 45.8325C52.2288 47.6922 48.316 47.8242 44.9817 46.1856L32.2452 39.9262L32.2214 39.9148C31.7828 39.7143 31.4533 39.3338 31.3174 38.871C31.1817 38.4082 31.2533 37.91 31.5139 37.5041C31.901 36.9014 32.6277 36.615 33.3223 36.7911L41.5013 38.8687L41.9585 38.9828L42.3258 38.6898C42.3626 38.6606 46.0511 35.7722 50.5314 36.9024L50.9939 35.0689C46.4558 33.9242 42.729 36.1054 41.5361 36.9264L37.3318 35.8583L25.5393 28.3519C25.1991 28.1334 24.9642 27.7953 24.8781 27.4002C24.792 27.0051 24.865 26.6 25.0836 26.2598C25.5346 25.5573 26.4731 25.3528 27.1757 25.804L39.6219 33.798L40.6438 32.2068L28.1976 24.2129L25.4305 22.4357C24.7281 21.9845 24.5237 21.0461 24.9748 20.3435C25.1933 20.0032 25.5314 19.7684 25.9265 19.6824C26.3217 19.5963 26.7266 19.6693 27.0669 19.8878L31.218 22.554C31.2197 22.5551 31.2231 22.5573 31.2231 22.5573L42.28 29.6589L43.3019 28.0677L32.2452 20.9665C31.5427 20.5153 31.3384 19.5769 31.7894 18.8744C32.2405 18.172 33.1791 17.9675 33.8816 18.4187L36.1173 19.8546L45.0301 25.5791L46.052 23.988L37.2574 18.3395C36.8587 17.8366 36.8188 17.129 37.1703 16.5818C37.3888 16.2416 37.7269 16.0067 38.122 15.9207C38.5171 15.8345 38.9222 15.9076 39.2624 16.1261L42.6943 18.3303L44.7627 19.7152L55.8888 26.8615C58.3865 28.4656 60.1098 30.9464 60.7416 33.8469C61.3733 36.7473 60.8379 39.72 59.2337 42.2177C58.591 43.2185 57.8 44.1027 56.883 44.8463L58.0738 46.3151C59.1476 45.4446 60.073 44.4099 60.8247 43.2396C62.7021 40.3169 63.3286 36.8381 62.5894 33.4442ZM35.5793 15.5598C35.3054 15.9862 35.1371 16.4562 35.0713 16.9353L34.9035 16.8276C34.4956 16.5656 34.0524 16.4027 33.6018 16.3312L44.6896 5.24348C45.163 4.77009 45.7924 4.50938 46.462 4.50938C47.1315 4.50938 47.7609 4.77009 48.2344 5.24348C49.2117 6.22074 49.2117 7.81104 48.2344 8.78834L43.3321 13.6906L41.626 15.3967L40.2845 14.535C38.7046 13.5201 36.5939 13.98 35.5793 15.5598ZM43.739 16.7538L43.2543 16.4424L44.6692 15.0275C45.6464 14.0502 47.2367 14.0502 48.214 15.0275C48.6874 15.5009 48.9481 16.1304 48.9481 16.7999C48.9481 17.4695 48.6874 18.099 48.214 18.5723L47.5369 19.2495L45.8074 18.1387L43.739 16.7538Z" stroke="#E8063C" mask="url(#path-1-outside-1_50_164)"/>
</svg>
