<svg width="54" height="67" viewBox="0 0 54 67" fill="none" xmlns="http://www.w3.org/2000/svg">
<path d="M13.6141 43.732C14.8078 43.732 15.93 43.2675 16.7732 42.4233C17.3516 41.846 17.719 41.1436 17.9133 40.4054L20.2595 42.7505C21.1026 43.5946 22.2249 44.0592 23.4174 44.0592C24.6111 44.0592 25.7323 43.5946 26.5753 42.7505C27.4195 41.9073 27.884 40.7851 27.884 39.5926C27.884 38.3989 27.4195 37.2776 26.5753 36.4335L24.5597 34.4179C25.3123 34.2191 26.0091 33.8417 26.5753 33.2754C27.4195 32.4313 27.884 31.3101 27.884 30.1164C27.884 28.9237 27.4195 27.8015 26.5753 26.9585L23.7692 24.1523C24.5229 23.9535 25.2197 23.5761 25.7858 23.0099C26.63 22.1668 27.0946 21.0457 27.0946 19.852C27.0946 18.6583 26.63 17.5371 25.7858 16.6941L17.8665 8.7736V1.11662C17.8665 0.500275 17.3662 0 16.7499 0C16.1335 0 15.6332 0.500275 15.6332 1.11662V7.05725C14.0152 6.42742 12.0476 6.74462 10.7836 8.00755C9.3978 9.39557 9.13425 11.4669 9.95617 13.1353C9.08962 13.2882 8.2656 13.6836 7.62452 14.3256C6.2488 15.7025 5.97857 17.7537 6.77812 19.4165C5.9083 19.5828 5.10653 20.0016 4.46662 20.6415C3.0909 22.0184 2.8195 24.0708 3.62022 25.7335C2.74922 25.8998 1.94863 26.3186 1.30872 26.9585C0.464551 27.8016 0 28.9238 0 30.1164C0 31.3101 0.464551 32.4313 1.30872 33.2754L10.4564 42.4232C11.2993 43.2675 12.4216 43.732 13.6141 43.732ZM12.3623 9.58663C12.7844 9.16565 13.3449 8.93338 13.9412 8.93338C14.5386 8.93338 15.0992 9.16565 15.5214 9.58663L15.9603 10.0255L24.2069 18.2732C24.629 18.6954 24.8612 19.2558 24.8612 19.8522C24.8612 20.4485 24.6289 21.0091 24.2069 21.4311C23.3627 22.2742 21.892 22.2742 21.049 21.4311L12.3624 12.7457C11.4925 11.8746 11.4925 10.4576 12.3623 9.58663ZM9.20321 15.9046C9.62536 15.4825 10.187 15.2502 10.7833 15.2502C11.3797 15.2502 11.9403 15.4825 12.3623 15.9046L24.9962 28.5376C25.4184 28.9597 25.6505 29.5202 25.6505 30.1165C25.6505 30.7139 25.4183 31.2745 24.9962 31.6966C24.1531 32.5398 22.6813 32.5398 21.8383 31.6966L16.925 26.7832L10.7833 20.6416C10.7822 20.6404 10.7822 20.6404 10.7811 20.6394L9.20321 19.0627C8.33339 18.1917 8.33339 16.7746 9.20321 15.9046ZM6.04531 22.2206C6.46746 21.7996 7.02793 21.5673 7.62544 21.5673C8.22059 21.5673 8.78119 21.7984 9.20216 22.2184L15.346 28.3622L24.9962 38.0136C25.4184 38.4346 25.6505 38.9952 25.6505 39.5926C25.6505 40.1889 25.4183 40.7495 24.9962 41.1715C24.1531 42.0146 22.6813 42.0146 21.8383 41.1715L16.7754 36.1096C16.7754 36.1084 16.7742 36.1074 16.7732 36.1062L12.1992 31.5323L6.04636 25.3794C5.17549 24.5087 5.17549 23.0916 6.04531 22.2206ZM2.23298 30.1165C2.23298 29.5202 2.46526 28.9596 2.88741 28.5376C3.30956 28.1166 3.87004 27.8843 4.46636 27.8843C5.06374 27.8843 5.62434 28.1166 6.04531 28.5376L6.68966 29.1819L15.1976 37.6899C16.0642 38.5609 16.0642 39.9745 15.1942 40.8445C14.3511 41.6876 12.8793 41.6887 12.0351 40.8445L2.88741 31.6968C2.46526 31.2745 2.23298 30.7139 2.23298 30.1165Z" fill="black"/>
<path d="M49.1005 27.9166C49.1005 28.533 49.5996 29.0332 50.2171 29.0332C50.8335 29.0332 51.3338 28.533 51.3338 27.9166C51.3338 19.8453 47.9648 15.0883 45.9514 12.2465C45.3641 11.4168 44.6339 10.385 44.6339 10.05V1.11662C44.6339 0.500275 44.1336 0 43.5173 0C42.8997 0 42.4006 0.500275 42.4006 1.11662V10.05C42.4006 11.0952 43.1253 12.1203 44.1303 13.5374C46.1089 16.3324 49.1005 20.5557 49.1005 27.9166Z" fill="black"/>
<path d="M16.7497 62.5334C16.1333 62.5334 15.6331 63.0337 15.6331 63.6501V65.8834C15.6331 66.4998 16.1333 67.0001 16.7497 67.0001C17.366 67.0001 17.8663 66.4998 17.8663 65.8834V63.6501C17.8663 63.0337 17.366 62.5334 16.7497 62.5334Z" fill="black"/>
<path d="M46.3691 29.2213C43.7428 27.4704 35.4939 22.6865 35.083 22.4509C34.3371 22.079 33.5085 22.1304 32.7514 22.5994C31.1188 23.6078 30.1172 26.376 30.1172 27.917C30.1172 30.0622 31.6225 31.3663 33.2171 32.7466C33.7699 33.2245 34.3405 33.7203 34.9111 34.2898L40.4945 39.8732C40.8641 40.2439 41.2135 40.5935 41.2616 40.6984C41.2817 40.761 41.2839 40.9987 41.2839 41.2322C41.0204 41.9379 38.9579 44.2963 37.1824 46.074L24.8645 57.2741C24.5396 57.5935 23.8539 58.067 23.4173 58.067H13.3673C12.1357 58.067 11.1339 57.0654 11.1339 55.8336C11.1339 54.6018 12.1355 53.6002 13.3673 53.6002H21.1839C22.7183 53.6002 24.0583 52.3038 24.2068 52.1563L32.0234 44.3397C32.4589 43.9032 32.4589 43.1973 32.0234 42.7608C31.5867 42.3241 30.88 42.3241 30.4445 42.7608L22.6311 50.5741C22.3062 50.8935 21.6205 51.367 21.1839 51.367H13.3673H10.0173C8.78567 51.367 7.78394 50.3654 7.78394 49.1336C7.78394 47.902 8.78554 46.9002 10.0173 46.9002H18.9507C19.567 46.9002 20.0673 46.4 20.0673 45.7836C20.0673 45.1673 19.567 44.667 18.9507 44.667H10.0173H6.66732C5.43567 44.667 4.43394 43.6654 4.43394 42.4336C4.43394 41.882 4.63599 41.3538 5.00226 40.9451C5.41434 40.485 5.37521 39.7793 4.91629 39.3672C4.45619 38.9551 3.75046 38.9953 3.33956 39.4543C2.60479 40.2739 2.20056 41.3315 2.20056 42.4336C2.20056 44.7362 3.95709 46.6144 6.19714 46.8534C5.79514 47.5234 5.55056 48.2973 5.55056 49.1336C5.55056 51.4362 7.30709 53.3144 9.54714 53.5534C9.14514 54.2234 8.90056 54.9973 8.90056 55.8336C8.90056 58.297 10.9039 60.3002 13.3672 60.3002H23.4172C24.9515 60.3002 26.2915 59.0038 26.4021 58.8932L38.7234 47.6897C43.5173 42.8958 43.5173 41.7077 43.5173 41.3168C43.5173 39.835 43.3353 39.5559 42.0734 38.294L36.49 32.7106C35.8636 32.083 35.2338 31.5393 34.6788 31.058C33.1489 29.7325 32.3506 28.9911 32.3506 27.9169C32.3506 26.5076 33.5521 24.4474 34.0233 24.4161C34.1081 24.4652 42.5614 29.3662 45.1308 31.0792C48.0185 33.0043 51.3339 36.035 51.3339 42.4335C51.3339 47.2262 47.5652 53.7241 45.0717 58.0233C43.2895 61.0952 42.433 62.6172 42.433 63.6501V65.8835C42.433 66.4998 42.9333 67.0001 43.5496 67.0001C44.166 67.0001 44.6663 66.4998 44.6663 65.8835V63.6624C44.7121 63.0951 45.9292 60.9957 47.0034 59.1443C49.7728 54.3684 53.5672 47.828 53.5672 42.4335C53.5672 34.8918 49.459 31.2815 46.3691 29.2213Z" fill="black"/>
</svg>
