<svg width="68" height="83" viewBox="0 0 68 83" fill="none" xmlns="http://www.w3.org/2000/svg">
<mask id="path-1-outside-1_209_7" maskUnits="userSpaceOnUse" x="0.891907" y="0" width="67" height="83" fill="black">
<rect fill="white" x="0.891907" width="67" height="83"/>
<path d="M18.3507 53.8701C19.7939 53.8701 21.1506 53.3084 22.1699 52.2879C22.8692 51.5899 23.3134 50.7408 23.5483 49.8484L26.3848 52.6834C27.4041 53.7039 28.7608 54.2656 30.2025 54.2656C31.6456 54.2656 33.0011 53.7039 34.0203 52.6834C35.0408 51.6641 35.6025 50.3073 35.6025 48.8656C35.6025 47.4225 35.0408 46.067 34.0203 45.0464L31.5835 42.6096C32.4933 42.3693 33.3357 41.9131 34.0203 41.2285C35.0408 40.208 35.6025 38.8525 35.6025 37.4093C35.6025 35.9675 35.0408 34.6107 34.0203 33.5916L30.6278 30.1991C31.539 29.9588 32.3814 29.5025 33.0658 28.818C34.0864 27.7987 34.648 26.4433 34.648 25.0002C34.648 23.5571 34.0864 22.2016 33.0658 21.1824L23.4917 11.6069V2.34995C23.4917 1.60481 22.8869 1 22.1417 1C21.3966 1 20.7918 1.60481 20.7918 2.34995V9.53189C18.8356 8.77046 16.4569 9.15395 14.9288 10.6808C13.2534 12.3588 12.9348 14.863 13.9285 16.88C12.8809 17.0649 11.8846 17.5428 11.1096 18.319C9.44642 19.9836 9.11973 22.4634 10.0864 24.4737C9.03478 24.6748 8.06547 25.181 7.29185 25.9546C5.62866 27.6193 5.30055 30.1005 6.2686 32.1106C5.2156 32.3117 4.24771 32.818 3.4741 33.5916C2.45353 34.6109 1.89191 35.9676 1.89191 37.4093C1.89191 38.8525 2.45353 40.208 3.4741 41.2285L14.5333 52.2877C15.5523 53.3084 16.909 53.8701 18.3507 53.8701ZM16.8374 12.5898C17.3477 12.0809 18.0253 11.8001 18.7462 11.8001C19.4684 11.8001 20.1462 12.0809 20.6565 12.5898L31.157 23.0915C31.6673 23.6018 31.948 24.2794 31.948 25.0004C31.948 25.7213 31.6672 26.399 31.157 26.9092C30.1364 27.9285 28.3583 27.9285 27.3392 26.9092L16.8375 16.409C15.7858 15.3558 15.7858 13.6428 16.8374 12.5898ZM13.0182 20.228C13.5285 19.7176 14.2075 19.4368 14.9285 19.4368C15.6494 19.4368 16.3272 19.7176 16.8374 20.228L32.1112 35.5006C32.6216 36.011 32.9022 36.6886 32.9022 37.4095C32.9022 38.1317 32.6214 38.8094 32.1112 39.3198C31.0919 40.3391 29.3126 40.3391 28.2935 39.3198L14.9285 25.9548C14.9271 25.9534 14.9258 25.9521 14.9258 25.9521L13.0182 24.0459C11.9666 22.9929 11.9666 21.2797 13.0182 20.228ZM9.20042 27.8637C9.71078 27.3547 10.3884 27.0739 11.1107 27.0739C11.8302 27.0739 12.508 27.3533 13.0169 27.861L32.1112 46.9567C32.6216 47.4657 32.9022 48.1434 32.9022 48.8656C32.9022 49.5866 32.6214 50.2643 32.1112 50.7745C31.0919 51.7938 29.3126 51.7938 28.2935 50.7745L22.1726 44.6549L22.1699 44.6508L9.20168 31.6825C8.14884 30.6299 8.14884 28.9167 9.20042 27.8637ZM4.59148 37.4095C4.59148 36.6886 4.8723 36.0108 5.38266 35.5006C5.89302 34.9917 6.57061 34.7109 7.29154 34.7109C8.01373 34.7109 8.69148 34.9917 9.20042 35.5006L20.2651 46.5653C21.3128 47.6183 21.3128 49.3274 20.261 50.3792C19.2417 51.3985 17.4624 51.3997 16.4418 50.3792L5.38266 39.32C4.8723 38.8094 4.59148 38.1317 4.59148 37.4095Z"/>
<path d="M61.2526 34.7499C61.2526 35.4951 61.856 36.0999 62.6025 36.0999C63.3477 36.0999 63.9525 35.4951 63.9525 34.7499C63.9525 24.9921 59.8795 19.2411 57.4454 15.8054C56.7354 14.8024 55.8526 13.555 55.8526 13.15V2.34995C55.8526 1.60481 55.2478 1 54.5027 1C53.7561 1 53.1527 1.60481 53.1527 2.34995V13.15C53.1527 14.4136 54.0289 15.6529 55.2439 17.3661C57.6359 20.7452 61.2526 25.8509 61.2526 34.7499Z"/>
<path d="M22.1416 76.6C21.3964 76.6 20.7916 77.2048 20.7916 77.9499V80.65C20.7916 81.3951 21.3964 81.9999 22.1416 81.9999C22.8867 81.9999 23.4915 81.3951 23.4915 80.65V77.9499C23.4915 77.2048 22.8867 76.6 22.1416 76.6Z"/>
<path d="M57.9502 36.327C54.7751 34.2103 44.8026 28.4269 44.3058 28.1419C43.4041 27.6923 42.4023 27.7545 41.487 28.3215C39.5132 29.5406 38.3024 32.8872 38.3024 34.7502C38.3024 37.3437 40.1222 38.9203 42.05 40.589C42.7183 41.1668 43.4082 41.7662 44.098 42.4547L50.848 49.2048C51.2949 49.653 51.7173 50.0755 51.7754 50.2024C51.7998 50.278 51.8025 50.5655 51.8025 50.8477C51.4838 51.7009 48.9904 54.552 46.8439 56.7012L31.9521 70.2417C31.5593 70.6279 30.7303 71.2002 30.2025 71.2002H18.0525C16.5635 71.2002 15.3525 69.9893 15.3525 68.5002C15.3525 67.011 16.5633 65.8001 18.0525 65.8001H27.5025C29.3574 65.8001 30.9774 64.2328 31.1569 64.0545L40.6069 54.6046C41.1334 54.0768 41.1334 53.2235 40.6069 52.6957C40.079 52.1678 39.2245 52.1678 38.698 52.6957L29.252 62.1417C28.8592 62.5279 28.0302 63.1002 27.5025 63.1002H14.0025C12.5135 63.1002 11.3025 61.8893 11.3025 60.4002C11.3025 58.9112 12.5133 57.7001 14.0025 57.7001H24.8026C25.5477 57.7001 26.1525 57.0953 26.1525 56.3502C26.1525 55.605 25.5477 55.0002 24.8026 55.0002H9.95251C8.4635 55.0002 7.25246 53.7893 7.25246 52.3002C7.25246 51.6334 7.49673 50.9947 7.93954 50.5006C8.43772 49.9444 8.39041 49.0912 7.8356 48.593C7.27935 48.0948 6.42616 48.1434 5.92941 48.6984C5.0411 49.6892 4.55241 50.9678 4.55241 52.3002C4.55241 55.0839 6.67597 57.3546 9.38409 57.6435C8.89809 58.4535 8.60241 59.3891 8.60241 60.4002C8.60241 63.1839 10.726 65.4546 13.4341 65.7435C12.9481 66.5535 12.6524 67.4891 12.6524 68.5002C12.6524 71.4784 15.0743 73.9001 18.0524 73.9001H30.2024C32.0573 73.9001 33.6773 72.3328 33.811 72.1991L48.7069 58.6546C54.5025 52.859 54.5025 51.4226 54.5025 50.9501C54.5025 49.1586 54.2824 48.8211 52.7569 47.2956L46.0068 40.5455C45.2495 39.7868 44.4881 39.1295 43.8172 38.5476C41.9676 36.9451 41.0024 36.0488 41.0024 34.7501C41.0024 33.0464 42.455 30.5556 43.0247 30.5178C43.1272 30.5772 53.3468 36.5023 56.4532 38.5732C59.9442 40.9005 63.9525 44.5645 63.9525 52.3C63.9525 58.0942 59.3962 65.9499 56.3816 71.1474C54.2271 74.8612 53.1916 76.7013 53.1916 77.95V80.65C53.1916 81.3952 53.7964 82 54.5416 82C55.2867 82 55.8915 81.3952 55.8915 80.65V77.9648C55.9469 77.279 57.4184 74.741 58.717 72.5027C62.0651 66.7288 66.6524 58.8218 66.6524 52.3C66.6524 43.1825 61.6857 38.8178 57.9502 36.327Z"/>
</mask>
<path d="M18.3507 53.8701C19.7939 53.8701 21.1506 53.3084 22.1699 52.2879C22.8692 51.5899 23.3134 50.7408 23.5483 49.8484L26.3848 52.6834C27.4041 53.7039 28.7608 54.2656 30.2025 54.2656C31.6456 54.2656 33.0011 53.7039 34.0203 52.6834C35.0408 51.6641 35.6025 50.3073 35.6025 48.8656C35.6025 47.4225 35.0408 46.067 34.0203 45.0464L31.5835 42.6096C32.4933 42.3693 33.3357 41.9131 34.0203 41.2285C35.0408 40.208 35.6025 38.8525 35.6025 37.4093C35.6025 35.9675 35.0408 34.6107 34.0203 33.5916L30.6278 30.1991C31.539 29.9588 32.3814 29.5025 33.0658 28.818C34.0864 27.7987 34.648 26.4433 34.648 25.0002C34.648 23.5571 34.0864 22.2016 33.0658 21.1824L23.4917 11.6069V2.34995C23.4917 1.60481 22.8869 1 22.1417 1C21.3966 1 20.7918 1.60481 20.7918 2.34995V9.53189C18.8356 8.77046 16.4569 9.15395 14.9288 10.6808C13.2534 12.3588 12.9348 14.863 13.9285 16.88C12.8809 17.0649 11.8846 17.5428 11.1096 18.319C9.44642 19.9836 9.11973 22.4634 10.0864 24.4737C9.03478 24.6748 8.06547 25.181 7.29185 25.9546C5.62866 27.6193 5.30055 30.1005 6.2686 32.1106C5.2156 32.3117 4.24771 32.818 3.4741 33.5916C2.45353 34.6109 1.89191 35.9676 1.89191 37.4093C1.89191 38.8525 2.45353 40.208 3.4741 41.2285L14.5333 52.2877C15.5523 53.3084 16.909 53.8701 18.3507 53.8701ZM16.8374 12.5898C17.3477 12.0809 18.0253 11.8001 18.7462 11.8001C19.4684 11.8001 20.1462 12.0809 20.6565 12.5898L31.157 23.0915C31.6673 23.6018 31.948 24.2794 31.948 25.0004C31.948 25.7213 31.6672 26.399 31.157 26.9092C30.1364 27.9285 28.3583 27.9285 27.3392 26.9092L16.8375 16.409C15.7858 15.3558 15.7858 13.6428 16.8374 12.5898ZM13.0182 20.228C13.5285 19.7176 14.2075 19.4368 14.9285 19.4368C15.6494 19.4368 16.3272 19.7176 16.8374 20.228L32.1112 35.5006C32.6216 36.011 32.9022 36.6886 32.9022 37.4095C32.9022 38.1317 32.6214 38.8094 32.1112 39.3198C31.0919 40.3391 29.3126 40.3391 28.2935 39.3198L14.9285 25.9548C14.9271 25.9534 14.9258 25.9521 14.9258 25.9521L13.0182 24.0459C11.9666 22.9929 11.9666 21.2797 13.0182 20.228ZM9.20042 27.8637C9.71078 27.3547 10.3884 27.0739 11.1107 27.0739C11.8302 27.0739 12.508 27.3533 13.0169 27.861L32.1112 46.9567C32.6216 47.4657 32.9022 48.1434 32.9022 48.8656C32.9022 49.5866 32.6214 50.2643 32.1112 50.7745C31.0919 51.7938 29.3126 51.7938 28.2935 50.7745L22.1726 44.6549L22.1699 44.6508L9.20168 31.6825C8.14884 30.6299 8.14884 28.9167 9.20042 27.8637ZM4.59148 37.4095C4.59148 36.6886 4.8723 36.0108 5.38266 35.5006C5.89302 34.9917 6.57061 34.7109 7.29154 34.7109C8.01373 34.7109 8.69148 34.9917 9.20042 35.5006L20.2651 46.5653C21.3128 47.6183 21.3128 49.3274 20.261 50.3792C19.2417 51.3985 17.4624 51.3997 16.4418 50.3792L5.38266 39.32C4.8723 38.8094 4.59148 38.1317 4.59148 37.4095Z" fill="#971900"/>
<path d="M61.2526 34.7499C61.2526 35.4951 61.856 36.0999 62.6025 36.0999C63.3477 36.0999 63.9525 35.4951 63.9525 34.7499C63.9525 24.9921 59.8795 19.2411 57.4454 15.8054C56.7354 14.8024 55.8526 13.555 55.8526 13.15V2.34995C55.8526 1.60481 55.2478 1 54.5027 1C53.7561 1 53.1527 1.60481 53.1527 2.34995V13.15C53.1527 14.4136 54.0289 15.6529 55.2439 17.3661C57.6359 20.7452 61.2526 25.8509 61.2526 34.7499Z" fill="#971900"/>
<path d="M22.1416 76.6C21.3964 76.6 20.7916 77.2048 20.7916 77.9499V80.65C20.7916 81.3951 21.3964 81.9999 22.1416 81.9999C22.8867 81.9999 23.4915 81.3951 23.4915 80.65V77.9499C23.4915 77.2048 22.8867 76.6 22.1416 76.6Z" fill="#971900"/>
<path d="M57.9502 36.327C54.7751 34.2103 44.8026 28.4269 44.3058 28.1419C43.4041 27.6923 42.4023 27.7545 41.487 28.3215C39.5132 29.5406 38.3024 32.8872 38.3024 34.7502C38.3024 37.3437 40.1222 38.9203 42.05 40.589C42.7183 41.1668 43.4082 41.7662 44.098 42.4547L50.848 49.2048C51.2949 49.653 51.7173 50.0755 51.7754 50.2024C51.7998 50.278 51.8025 50.5655 51.8025 50.8477C51.4838 51.7009 48.9904 54.552 46.8439 56.7012L31.9521 70.2417C31.5593 70.6279 30.7303 71.2002 30.2025 71.2002H18.0525C16.5635 71.2002 15.3525 69.9893 15.3525 68.5002C15.3525 67.011 16.5633 65.8001 18.0525 65.8001H27.5025C29.3574 65.8001 30.9774 64.2328 31.1569 64.0545L40.6069 54.6046C41.1334 54.0768 41.1334 53.2235 40.6069 52.6957C40.079 52.1678 39.2245 52.1678 38.698 52.6957L29.252 62.1417C28.8592 62.5279 28.0302 63.1002 27.5025 63.1002H14.0025C12.5135 63.1002 11.3025 61.8893 11.3025 60.4002C11.3025 58.9112 12.5133 57.7001 14.0025 57.7001H24.8026C25.5477 57.7001 26.1525 57.0953 26.1525 56.3502C26.1525 55.605 25.5477 55.0002 24.8026 55.0002H9.95251C8.4635 55.0002 7.25246 53.7893 7.25246 52.3002C7.25246 51.6334 7.49673 50.9947 7.93954 50.5006C8.43772 49.9444 8.39041 49.0912 7.8356 48.593C7.27935 48.0948 6.42616 48.1434 5.92941 48.6984C5.0411 49.6892 4.55241 50.9678 4.55241 52.3002C4.55241 55.0839 6.67597 57.3546 9.38409 57.6435C8.89809 58.4535 8.60241 59.3891 8.60241 60.4002C8.60241 63.1839 10.726 65.4546 13.4341 65.7435C12.9481 66.5535 12.6524 67.4891 12.6524 68.5002C12.6524 71.4784 15.0743 73.9001 18.0524 73.9001H30.2024C32.0573 73.9001 33.6773 72.3328 33.811 72.1991L48.7069 58.6546C54.5025 52.859 54.5025 51.4226 54.5025 50.9501C54.5025 49.1586 54.2824 48.8211 52.7569 47.2956L46.0068 40.5455C45.2495 39.7868 44.4881 39.1295 43.8172 38.5476C41.9676 36.9451 41.0024 36.0488 41.0024 34.7501C41.0024 33.0464 42.455 30.5556 43.0247 30.5178C43.1272 30.5772 53.3468 36.5023 56.4532 38.5732C59.9442 40.9005 63.9525 44.5645 63.9525 52.3C63.9525 58.0942 59.3962 65.9499 56.3816 71.1474C54.2271 74.8612 53.1916 76.7013 53.1916 77.95V80.65C53.1916 81.3952 53.7964 82 54.5416 82C55.2867 82 55.8915 81.3952 55.8915 80.65V77.9648C55.9469 77.279 57.4184 74.741 58.717 72.5027C62.0651 66.7288 66.6524 58.8218 66.6524 52.3C66.6524 43.1825 61.6857 38.8178 57.9502 36.327Z" fill="#971900"/>
<path d="M18.3507 53.8701C19.7939 53.8701 21.1506 53.3084 22.1699 52.2879C22.8692 51.5899 23.3134 50.7408 23.5483 49.8484L26.3848 52.6834C27.4041 53.7039 28.7608 54.2656 30.2025 54.2656C31.6456 54.2656 33.0011 53.7039 34.0203 52.6834C35.0408 51.6641 35.6025 50.3073 35.6025 48.8656C35.6025 47.4225 35.0408 46.067 34.0203 45.0464L31.5835 42.6096C32.4933 42.3693 33.3357 41.9131 34.0203 41.2285C35.0408 40.208 35.6025 38.8525 35.6025 37.4093C35.6025 35.9675 35.0408 34.6107 34.0203 33.5916L30.6278 30.1991C31.539 29.9588 32.3814 29.5025 33.0658 28.818C34.0864 27.7987 34.648 26.4433 34.648 25.0002C34.648 23.5571 34.0864 22.2016 33.0658 21.1824L23.4917 11.6069V2.34995C23.4917 1.60481 22.8869 1 22.1417 1C21.3966 1 20.7918 1.60481 20.7918 2.34995V9.53189C18.8356 8.77046 16.4569 9.15395 14.9288 10.6808C13.2534 12.3588 12.9348 14.863 13.9285 16.88C12.8809 17.0649 11.8846 17.5428 11.1096 18.319C9.44642 19.9836 9.11973 22.4634 10.0864 24.4737C9.03478 24.6748 8.06547 25.181 7.29185 25.9546C5.62866 27.6193 5.30055 30.1005 6.2686 32.1106C5.2156 32.3117 4.24771 32.818 3.4741 33.5916C2.45353 34.6109 1.89191 35.9676 1.89191 37.4093C1.89191 38.8525 2.45353 40.208 3.4741 41.2285L14.5333 52.2877C15.5523 53.3084 16.909 53.8701 18.3507 53.8701ZM16.8374 12.5898C17.3477 12.0809 18.0253 11.8001 18.7462 11.8001C19.4684 11.8001 20.1462 12.0809 20.6565 12.5898L31.157 23.0915C31.6673 23.6018 31.948 24.2794 31.948 25.0004C31.948 25.7213 31.6672 26.399 31.157 26.9092C30.1364 27.9285 28.3583 27.9285 27.3392 26.9092L16.8375 16.409C15.7858 15.3558 15.7858 13.6428 16.8374 12.5898ZM13.0182 20.228C13.5285 19.7176 14.2075 19.4368 14.9285 19.4368C15.6494 19.4368 16.3272 19.7176 16.8374 20.228L32.1112 35.5006C32.6216 36.011 32.9022 36.6886 32.9022 37.4095C32.9022 38.1317 32.6214 38.8094 32.1112 39.3198C31.0919 40.3391 29.3126 40.3391 28.2935 39.3198L14.9285 25.9548C14.9271 25.9534 14.9258 25.9521 14.9258 25.9521L13.0182 24.0459C11.9666 22.9929 11.9666 21.2797 13.0182 20.228ZM9.20042 27.8637C9.71078 27.3547 10.3884 27.0739 11.1107 27.0739C11.8302 27.0739 12.508 27.3533 13.0169 27.861L32.1112 46.9567C32.6216 47.4657 32.9022 48.1434 32.9022 48.8656C32.9022 49.5866 32.6214 50.2643 32.1112 50.7745C31.0919 51.7938 29.3126 51.7938 28.2935 50.7745L22.1726 44.6549L22.1699 44.6508L9.20168 31.6825C8.14884 30.6299 8.14884 28.9167 9.20042 27.8637ZM4.59148 37.4095C4.59148 36.6886 4.8723 36.0108 5.38266 35.5006C5.89302 34.9917 6.57061 34.7109 7.29154 34.7109C8.01373 34.7109 8.69148 34.9917 9.20042 35.5006L20.2651 46.5653C21.3128 47.6183 21.3128 49.3274 20.261 50.3792C19.2417 51.3985 17.4624 51.3997 16.4418 50.3792L5.38266 39.32C4.8723 38.8094 4.59148 38.1317 4.59148 37.4095Z" stroke="#971900" stroke-width="2" mask="url(#path-1-outside-1_209_7)"/>
<path d="M61.2526 34.7499C61.2526 35.4951 61.856 36.0999 62.6025 36.0999C63.3477 36.0999 63.9525 35.4951 63.9525 34.7499C63.9525 24.9921 59.8795 19.2411 57.4454 15.8054C56.7354 14.8024 55.8526 13.555 55.8526 13.15V2.34995C55.8526 1.60481 55.2478 1 54.5027 1C53.7561 1 53.1527 1.60481 53.1527 2.34995V13.15C53.1527 14.4136 54.0289 15.6529 55.2439 17.3661C57.6359 20.7452 61.2526 25.8509 61.2526 34.7499Z" stroke="#971900" stroke-width="2" mask="url(#path-1-outside-1_209_7)"/>
<path d="M22.1416 76.6C21.3964 76.6 20.7916 77.2048 20.7916 77.9499V80.65C20.7916 81.3951 21.3964 81.9999 22.1416 81.9999C22.8867 81.9999 23.4915 81.3951 23.4915 80.65V77.9499C23.4915 77.2048 22.8867 76.6 22.1416 76.6Z" stroke="#971900" stroke-width="2" mask="url(#path-1-outside-1_209_7)"/>
<path d="M57.9502 36.327C54.7751 34.2103 44.8026 28.4269 44.3058 28.1419C43.4041 27.6923 42.4023 27.7545 41.487 28.3215C39.5132 29.5406 38.3024 32.8872 38.3024 34.7502C38.3024 37.3437 40.1222 38.9203 42.05 40.589C42.7183 41.1668 43.4082 41.7662 44.098 42.4547L50.848 49.2048C51.2949 49.653 51.7173 50.0755 51.7754 50.2024C51.7998 50.278 51.8025 50.5655 51.8025 50.8477C51.4838 51.7009 48.9904 54.552 46.8439 56.7012L31.9521 70.2417C31.5593 70.6279 30.7303 71.2002 30.2025 71.2002H18.0525C16.5635 71.2002 15.3525 69.9893 15.3525 68.5002C15.3525 67.011 16.5633 65.8001 18.0525 65.8001H27.5025C29.3574 65.8001 30.9774 64.2328 31.1569 64.0545L40.6069 54.6046C41.1334 54.0768 41.1334 53.2235 40.6069 52.6957C40.079 52.1678 39.2245 52.1678 38.698 52.6957L29.252 62.1417C28.8592 62.5279 28.0302 63.1002 27.5025 63.1002H14.0025C12.5135 63.1002 11.3025 61.8893 11.3025 60.4002C11.3025 58.9112 12.5133 57.7001 14.0025 57.7001H24.8026C25.5477 57.7001 26.1525 57.0953 26.1525 56.3502C26.1525 55.605 25.5477 55.0002 24.8026 55.0002H9.95251C8.4635 55.0002 7.25246 53.7893 7.25246 52.3002C7.25246 51.6334 7.49673 50.9947 7.93954 50.5006C8.43772 49.9444 8.39041 49.0912 7.8356 48.593C7.27935 48.0948 6.42616 48.1434 5.92941 48.6984C5.0411 49.6892 4.55241 50.9678 4.55241 52.3002C4.55241 55.0839 6.67597 57.3546 9.38409 57.6435C8.89809 58.4535 8.60241 59.3891 8.60241 60.4002C8.60241 63.1839 10.726 65.4546 13.4341 65.7435C12.9481 66.5535 12.6524 67.4891 12.6524 68.5002C12.6524 71.4784 15.0743 73.9001 18.0524 73.9001H30.2024C32.0573 73.9001 33.6773 72.3328 33.811 72.1991L48.7069 58.6546C54.5025 52.859 54.5025 51.4226 54.5025 50.9501C54.5025 49.1586 54.2824 48.8211 52.7569 47.2956L46.0068 40.5455C45.2495 39.7868 44.4881 39.1295 43.8172 38.5476C41.9676 36.9451 41.0024 36.0488 41.0024 34.7501C41.0024 33.0464 42.455 30.5556 43.0247 30.5178C43.1272 30.5772 53.3468 36.5023 56.4532 38.5732C59.9442 40.9005 63.9525 44.5645 63.9525 52.3C63.9525 58.0942 59.3962 65.9499 56.3816 71.1474C54.2271 74.8612 53.1916 76.7013 53.1916 77.95V80.65C53.1916 81.3952 53.7964 82 54.5416 82C55.2867 82 55.8915 81.3952 55.8915 80.65V77.9648C55.9469 77.279 57.4184 74.741 58.717 72.5027C62.0651 66.7288 66.6524 58.8218 66.6524 52.3C66.6524 43.1825 61.6857 38.8178 57.9502 36.327Z" stroke="#971900" stroke-width="2" mask="url(#path-1-outside-1_209_7)"/>
</svg>
